<?xml version="1.0" encoding="utf-8"?>
<!-- Generator: Adobe Illustrator 24.0.2, SVG Export Plug-In . SVG Version: 6.00 Build 0)  -->
<svg version="1.1" id="Capa_1" xmlns="http://www.w3.org/2000/svg" xmlns:xlink="http://www.w3.org/1999/xlink" x="0px" y="0px"
	 viewBox="0 0 612 792" style="enable-background:new 0 0 612 792;" xml:space="preserve">
<style type="text/css">
	.st0{fill:#E30613;}
	.st1{fill:#FFFFFF;}
</style>
<path class="st0" d="M234.97,434.33c-0.36-0.11-0.69-0.19-0.99-0.26c-0.79-0.19-1.54-0.36-1.84-1.11c-0.26-0.64-0.05-1.4,0.24-1.9
	c0.3-0.53,0.73-0.87,1.18-0.94c0.59-0.09,0.96,0.29,1.28,0.63c0.21,0.22,0.44,0.45,0.76,0.63c0.86,0.49,2.05,0.44,2.79,0.19
	c0.41-0.14,0.56-0.3,0.59-0.34c0-0.06-0.08-0.27-0.42-0.6c-0.94-0.92-2.84-1.78-4.66-1.68c-0.56,0.03-1.85,0.11-2.87,1.17
	c-1.2,1.25-1.63,3.48-0.87,4.52c0.22,0.3,0.43,0.36,1.08,0.53c0.62,0.16,1.47,0.37,2.74,1c1.32,0.66,2.47,1.22,2.56,2.32
	c0.05,0.56-0.21,1.22-0.67,1.7c-0.39,0.42-0.84,0.64-1.33,0.64c-0.74-0.02-1.11-0.63-1.44-1.17c-0.29-0.47-0.58-0.95-1.11-1.14
	c-0.17-0.06-0.36-0.09-0.56-0.09c-0.34,0-0.7,0.08-1.01,0.24c-0.33,0.16-0.57,0.39-0.64,0.61c-0.27,0.83,1.34,2.68,3.36,3.43
	c0.51,0.19,2.05,0.77,3.61,0.02c1.83-0.87,3.04-3.17,2.59-4.92C238.76,435.64,235.6,434.53,234.97,434.33z"/>
<path class="st0" d="M216.84,429.07h-4.7c-1.22,0.12-2.13,0.55-2.67,1.27c-0.52,0.69-0.58,1.52-0.56,2h2.65
	c0.14-0.41,0.46-1.02,1.13-1.39c0.85-0.47,1.97-0.4,3.33,0.21l0.3,0.13v2.05c0,0.62-0.66,0.79-1.98,1.13
	c-1.83,0.48-4.6,1.2-5.48,3.05c-1.13,2.38,0.8,4.16,1.32,4.58h3.81l0.12,0.07c0.25,0.03,1.04-0.8,1.66-1.89l0.93-1.64v3.46h2.1
	v-10.48C218.8,430.54,217.48,429.48,216.84,429.07z M215.67,438.09c0,0.85-0.24,1.52-0.71,1.97c-0.52,0.5-1.15,0.57-1.39,0.58
	c-0.12,0.03-0.33,0.08-0.58,0.08c-0.29,0-0.63-0.06-0.94-0.26c-0.3-0.2-0.67-0.61-0.73-1.44c-0.15-1.99,3.28-3.36,3.68-3.51
	l0.68-0.26V438.09z"/>
<path d="M224.22,420.41h6.08v-9.48c0-0.11-0.05-2.78-2.78-2.98l-0.44-0.03l-0.16-2.78l0.27-0.15c0.81-0.47,2.94-1.96,3.11-3.23
	l0-5.75c-0.11-0.44-1-3.38-4.24-4.12H209.7v28.54h5.84v-11.73h8.68V420.41z"/>
<path class="st1" d="M212.32,438.93c0.03,0.34,0.12,0.57,0.29,0.68c0.24,0.16,0.64,0.08,0.73,0.05l0.09-0.03l0.09,0c0,0,0,0,0,0
	c0.02,0,0.45,0,0.76-0.31c0.26-0.26,0.4-0.67,0.4-1.24v-1.36C213.61,437.25,212.25,438.14,212.32,438.93z"/>
<path d="M203.27,404.36c0.8-0.47,1.31-1.97,1.46-2.6l-0.24-5.09c-0.21-4.6-2.78-4.8-2.88-4.8l-17.48,0v28.54h5.73l0.12-11.73h9.4
	l-0.12,11.73h5.47v-8.88c0-2.07-2.59-3.53-2.62-3.54l-0.26-0.14l0-3.58l0.64,0.19C202.78,404.53,203.03,404.5,203.27,404.36z"/>
<path class="st0" d="M295.46,442.16v-12.77h-4.11c0.07,1.17,0.11,4.28-0.04,12.77H295.46z"/>
<rect x="256.38" y="423.91" class="st0" width="3.2" height="18.25"/>
<path class="st1" d="M247.73,432.67L247.73,432.67c-0.6,0-1.25,1.39-1.29,2.75c-0.04,1.29,0.47,2.55,0.99,3.02
	c0.11,0.1,0.27,0.22,0.43,0.19c0.59-0.07,1.27-1.67,1.18-3.26C248.95,434.01,248.3,432.67,247.73,432.67z"/>
<path class="st0" d="M286.36,437.13c-0.67-0.01-1.27,0.22-1.61,0.64c-0.16,0.2-0.16,0.41-0.16,0.74c0.01,0.34,0.01,0.81-0.39,1.13
	c-0.39,0.31-1.01,0.36-1.76,0.13c-1.17-0.36-2.55-1.39-3.01-2.89c-0.46-1.5,0.11-3.05,0.8-4c0.6-0.83,1.33-1.31,2.01-1.32
	c0.71,0.01,1.1,0.44,1.46,0.83c0.34,0.37,0.66,0.72,1.24,0.86c0.8,0.19,1.77-0.11,2.31-0.49c0.29-0.21,0.41-0.4,0.42-0.51
	c0.02-0.19-0.23-0.7-1-1.3c-1.08-0.84-2.73-1.55-4.34-1.55c-0.53,0-1.05,0.08-1.55,0.25c-1.39,0.49-2.57,1.76-3.26,3.5
	c-0.84,2.15-0.79,4.58,0.14,6.35c0.72,1.38,2.3,2.94,4.53,3.19c0.03,0,3.04,0.31,4.7-1.82c0.56-0.72,1.46-2.29,0.87-3.12
	C287.51,437.38,286.97,437.15,286.36,437.13z"/>
<path class="st0" d="M268.18,439.56c-0.09,0.11-0.22,0.19-0.38,0.22c-0.55,0.09-0.97-0.49-1.45-1.48l-0.05-0.1v-9.25l-3.08,0.1
	v10.44c0.01,0,0.52,2.69,2.13,2.67l2.87-0.05c0.34-0.2,1.42-0.87,1.86-1.66l0.94-1.69v3.4l2.84,0v-13.09h-3.43l0.11,9.13l-0.05,0.11
	C270.25,438.79,269.47,439.61,268.18,439.56z"/>
<path class="st0" d="M247.72,428.95C247.72,428.95,247.72,428.95,247.72,428.95c-3.05,0-5.34,3.35-5.5,6.37
	c-0.11,2.03,0.82,4.31,2.37,5.82c1.13,1.1,2.44,1.65,3.7,1.55c1.44-0.11,2.5-1.03,3.13-1.78c1.29-1.53,1.99-3.71,1.81-5.69
	C252.99,432.59,250.94,428.95,247.72,428.95z M247.97,439.62c-0.05,0.01-0.1,0.01-0.16,0.01c-0.29,0-0.67-0.09-1.06-0.46
	c-0.81-0.74-1.36-2.33-1.31-3.79c0.06-1.79,0.95-3.71,2.29-3.71c0,0,0,0,0,0c1.44,0,2.21,2.13,2.29,3.64
	C250.13,437.22,249.31,439.45,247.97,439.62z"/>
<polygon points="253.94,413.71 241.2,413.59 241.36,408.68 253.94,408.68 253.94,403.03 241.22,402.91 241.22,398.07 253.94,398.07 
	253.94,391.87 235.26,391.87 235.26,420.41 253.94,420.41 "/>
<path class="st0" d="M183.31,439.06c-0.23-0.3-0.47-0.83-0.26-1.62l0.1-0.37h8.4v-3.59c-0.02-0.11-0.51-4.06-5.73-4.06
	c-5.21,0-5.27,4.6-5.27,4.79v4.43c0.2,0.53,1.53,3.68,4,3.59l3.78,0c0.41-0.19,2.1-1.04,2.91-2.23h-5.55
	C185.53,440,184.01,439.97,183.31,439.06z M183.15,433.99c0.17-1.05,1.02-2.98,2.93-2.87c1.87,0.12,2.69,1.92,2.87,2.86l0.11,0.59
	h-6.01L183.15,433.99z"/>
<polygon class="st0" points="135.27,442.68 139.17,442.68 139.17,427.63 143.67,427.63 143.67,423.99 130.87,423.99 130.87,427.63 
	135.27,427.63 "/>
<polygon points="166.44,408.68 180.14,408.68 180.14,403.03 166.2,403.03 166.36,398.67 180.14,398.67 180.14,391.87 160.5,391.87 
	160.5,420.41 180.14,420.41 180.14,413.07 166.6,413.07 "/>
<path d="M156.02,390.87v-0.56H145.1v-1.08h-0.43v1.2h-3.47v-1.08h-0.38v1.08h-1.85l0.14-8.08h4.11v1.54l1.88-0.08v-0.87l1.96-0.49
	v1.32l2.07-0.08l-0.12-1.34h2.97v1.41l1.4-0.07v-1.22h2.8v1.11l1.28,0.07v-3.78c-2.47-0.02-13.58-0.1-20.85,0
	c-2.75,0.04-4.3,0.42-5.04,1.23c-0.91,1-0.75,2.88-0.51,5.71c0.1,1.19,0.21,2.54,0.26,4.06h24.36H156.02z"/>
<path d="M141.3,411.35c0.18,0.1,0.53,0.28,1.24,0.56c0.53,0.2,0.93,0.22,1.21,0.03c0.4-0.28,0.63-1.04,0.63-2.08v-6.82h-3.08V411.35
	z"/>
<polygon class="st0" points="303.24,425.19 304.62,423.91 304.09,423.91 302.95,425.19 "/>
<path class="st1" d="M186.02,432.12c-1-0.07-1.5,0.83-1.72,1.45h3.49C187.54,432.99,187.03,432.18,186.02,432.12z"/>
<polygon points="306.22,398.58 306.22,420.41 318.26,420.41 318.26,384.91 305.94,384.91 288.46,403.39 270.67,384.91 
	258.66,384.91 258.66,420.41 270.38,420.41 270.38,398.31 288.17,416.34 "/>
<path class="st0" d="M148.34,396.27h6.84v-4.4h-23.04c2.47,17.92-2.87,24.53-3.92,25.63v2.85c0.49-0.05,1.28-0.11,2.4-0.11
	c0.94,0,2.1,0.04,3.5,0.16c3.84,0.32,4.48-3.05,4.51-3.19l-0.01-15.17h6.84v-2.16h2.88V396.27z"/>
<path class="st0" d="M173.48,429.26c-0.09,0.02-1.34,0.25-1.86,1.4l-0.11,0.25l-1.69,0.26v-1.89h-3.06v12.81h3.06v-8.17l0.08-0.12
	c0.12-0.19,1.21-1.83,2.56-1.72c0.77,0.06,1.4,0.67,1.88,1.79l0.04,0.19v8.02h3.26v-9.47c0-0.04,0.08-2.06-1.1-3.02
	C175.84,429.03,174.81,428.92,173.48,429.26z"/>
<path class="st1" d="M158.16,432.31c-1-0.06-1.5,0.83-1.72,1.45h3.49C159.69,433.19,159.17,432.38,158.16,432.31z"/>
<path class="st0" d="M155.46,438.92c-0.23-0.3-0.47-0.83-0.26-1.62l0.1-0.37h8.4v-3.59c-0.02-0.11-0.51-4.06-5.73-4.06
	c-5.18,0-5.27,4.6-5.27,4.79v4.43c0.2,0.53,1.54,3.7,4,3.59l3.78,0c0.41-0.19,2.1-1.04,2.91-2.23h-5.55
	C157.67,439.86,156.16,439.83,155.46,438.92z M155.29,434.18c0.17-1.05,1.02-2.99,2.93-2.87c1.87,0.12,2.69,1.92,2.87,2.86
	l0.11,0.59h-6.01L155.29,434.18z"/>
<rect x="146.63" y="423.99" class="st0" width="3" height="2.35"/>
<rect x="146.63" y="430.05" class="st0" width="3" height="12.63"/>
<rect x="201.86" y="423.99" class="st0" width="2.88" height="18.1"/>
<polygon points="371.15,408.47 353.78,418.06 353.05,422.91 367,416.19 "/>
<path d="M353.78,391.69c-0.63,0-5.03,0.07-6.93,0.86c-3.02,1.48-6.3,3.34-7.87,4.52c2.72-1.18,8.38-3.41,11.47-3.14
	c0.2-0.02,6.01-0.53,9.49,2.45C358.64,394.62,356.54,392.56,353.78,391.69z"/>
<path class="st1" d="M354.22,384.88c-2.32-0.88-8.56-0.03-8.92,0.03c-0.55,0.12-8.52,1.96-9.33,9.35l1.37-1.11
	c0.31-0.25,7.71-6.21,11.58-6.77c3.81-0.54,7.04-0.02,7.17,0l0.14,0.04c5.03,2.43,6.49,6.78,6.46,7.53
	c0.65,0.29,1.28,0.58,1.82,1.06c0.2,0.18,0.18,0.53,0,0.71c-0.2,0.2-0.5,0.18-0.71,0c-0.07-0.06-0.14-0.12-0.21-0.17
	c0.15,0.19,0.11,0.48-0.04,0.65c-0.19,0.21-0.51,0.17-0.71,0c-0.48-0.41-0.96-0.81-1.41-1.25c-0.17-0.17-0.34-0.35-0.5-0.53
	c-0.09,0.01-0.19-0.01-0.26-0.07c-0.04-0.03-0.06-0.06-0.1-0.08c0,0,0,0,0,0.01c-0.02-0.02-0.04-0.04-0.05-0.06
	c-0.16-0.14-0.3-0.29-0.38-0.5c-0.07-0.2-0.08-0.42-0.08-0.63c0-0.27,0.22-0.49,0.49-0.5c-1.2-0.94-3.2-1.84-4.6-2.33
	c-0.56,0.03-3.25,0.16-5.58,0c-2-0.14-9.72,2.66-12.53,3.75l-1.91,0.74c-0.05,0.73-0.03,1.5,0.07,2.33
	c0.17,1.39,0.65,2.56,1.35,3.56c-0.07-0.19-0.11-0.39-0.12-0.59c-0.02-0.37,0.18-0.8,0.44-1.06c0.27-0.27,0.67-0.44,1.06-0.44
	c0.1,0,0.2-0.01,0.29-0.02c0.29-0.05,0.56-0.13,0.84-0.24c0.26-0.12,0.51-0.24,0.75-0.38c0.36-0.2,0.76-0.24,1.16-0.15
	c0.38,0.09,0.69,0.37,0.9,0.69c0.21,0.32,0.25,0.8,0.15,1.16c-0.1,0.36-0.36,0.71-0.69,0.9c-1.05,0.6-2.18,1.04-3.4,1.04
	c-0.35,0-0.67-0.13-0.94-0.35c4.39,5.21,15.16,4.85,16.16,4.8c0.84-0.32,9.15-3.68,10.78-9.72
	C366.44,389.89,356.28,385.66,354.22,384.88z M345.32,400.78c-0.64,0-0.64-1,0-1C345.96,399.78,345.96,400.78,345.32,400.78z
	 M362.07,399.9c-0.06,0.02-0.11,0.02-0.17,0.02c-0.12,0-0.24-0.04-0.37-0.13c0,0.17-0.08,0.34-0.24,0.44
	c-0.22,0.14-0.56,0.05-0.68-0.18c-0.08-0.14-0.17-0.28-0.26-0.42c-0.04-0.06-0.09-0.12-0.13-0.19c-0.02-0.03-0.05-0.06-0.07-0.09
	c0-0.01,0,0,0-0.01c0,0-0.01-0.01-0.02-0.02c-0.2-0.25-0.41-0.48-0.63-0.71c-0.42-0.43-0.88-0.83-1.33-1.23
	c-0.21-0.18-0.17-0.52,0-0.71c0.08-0.09,0.19-0.13,0.3-0.13c-3.23-2.03-7.95-1.63-8.01-1.62c-3.9-0.34-12.49,3.69-12.58,3.73
	l-0.29,0.14l-0.04-0.03c-0.13,0.08-0.29,0.09-0.43,0.04c-0.04,0.02-0.08,0.04-0.13,0.04c-0.22,0.03-0.51-0.12-0.55-0.36
	c-0.01-0.05-0.01-0.09-0.01-0.13c0,0,0,0-0.01,0c0-0.01,0-0.02,0-0.03c-0.08-0.64,0.04-1.27,0.44-1.8c0.05-0.07,0.13-0.12,0.19-0.19
	c0.12-0.22,0.27-0.43,0.43-0.63c0.56-0.68,1.32-1.17,2.07-1.63c0.29-0.18,0.56-0.02,0.68,0.22c0.2,0.09,0.33,0.31,0.3,0.53
	c2.03-1.25,4.47-2.49,5.91-3.2c2.25-0.94,7.21-0.95,7.42-0.95l0.15,0.02c5.33,1.64,8.49,7.35,8.48,8.58
	C362.48,399.65,362.27,399.84,362.07,399.9z"/>
<polygon points="324.2,393.17 321.42,398.34 321.42,402.58 324.2,410.96 "/>
<polygon points="348.5,424.18 348.5,417.48 328.48,411.27 326.92,417.84 "/>
<polygon points="380.28,385.75 380.28,420.41 391.7,420.41 391.7,395.48 419.93,420.41 433.82,420.41 433.82,385.75 421.32,385.75 
	421.13,410.25 392.2,385.75 "/>
<path class="st0" d="M320.49,430.15c-0.09,0.02-1.34,0.25-1.86,1.4l-0.11,0.25l-1.69,0.26v-1.89h-3.06v12.81h3.06v-8.17l0.08-0.12
	c0.12-0.19,1.19-1.84,2.56-1.72c0.77,0.06,1.4,0.67,1.88,1.79l0.04,0.19v8.02h3.26v-9.47c0-0.04,0.08-2.06-1.1-3.02
	C322.85,429.93,321.82,429.81,320.49,430.15z"/>
<path d="M355.99,389.25l0.1-0.01l0.09,0.03c0.36,0.12,2.56,0.9,4.28,2.01c-0.9-1.31-2.35-2.83-4.59-3.93
	c-0.31-0.05-1.61-0.22-3.38-0.22c-1.02,0-2.19,0.06-3.42,0.23c-2.22,0.32-5.89,2.71-8.4,4.51c3.25-1.16,8.04-2.75,9.77-2.63
	C352.93,389.43,355.96,389.25,355.99,389.25z"/>
<path d="M345.84,375.74L328.8,388.2v19.54l22.48,7.2l22.01-12.41l-2.61-17.76L345.84,375.74z M365.68,396.54
	c-1.85,6.83-11.08,10.28-11.47,10.42l-0.14,0.03c-0.12,0.01-0.68,0.04-1.53,0.04c-4.35,0-16.45-0.82-17.54-9.84
	c-0.09-0.72-0.11-1.41-0.09-2.05l-0.05,0.02l0.05-0.04c0.28-9.02,10.1-11.17,10.21-11.19l0.03-0.01c0.28-0.04,6.82-0.97,9.43,0.03
	C356.77,384.78,367.63,389.32,365.68,396.54z"/>
<polygon points="453.72,420.41 465.68,420.41 465.68,393.44 483.22,393.44 483.22,385.75 436.98,385.75 436.98,393.44 
	453.72,393.44 "/>
<rect x="291.3" y="423.91" class="st0" width="4.16" height="2.6"/>
<path class="st0" d="M304.92,427.93C304.92,427.93,304.92,427.93,304.92,427.93c-3.04,0-5.34,3.7-5.5,7.03
	c-0.12,2.42,0.92,5.05,2.65,6.7c1.06,1.02,2.27,1.53,3.41,1.43c3.09-0.27,5.23-4.73,4.95-8.25
	C310.15,431.51,307.87,427.94,304.92,427.93z M305.22,440.05c-0.06,0.01-0.13,0.01-0.19,0.01c-0.52,0-1.04-0.23-1.51-0.67
	c-0.99-0.92-1.61-2.6-1.55-4.19c0.08-2.04,1.28-4.23,2.95-4.23c0,0,0,0,0,0c1.65,0,2.82,2.16,2.95,4.15
	C308.02,437.3,306.92,439.87,305.22,440.05z"/>
<path class="st1" d="M304.92,431.98L304.92,431.98c-1.03,0-1.89,1.76-1.95,3.27c-0.05,1.27,0.47,2.7,1.23,3.42
	c0.22,0.2,0.56,0.43,0.91,0.39c0.97-0.1,1.88-2.09,1.76-3.86C306.78,433.68,305.92,431.98,304.92,431.98z"/>
<path d="M146.46,400.87h2.88v-3.6h6.84v-5.4h0.84v-2.56H146.1v-1.08h-2.43v1.2h-1.47v-1.08h-2.19l0.08-5h2.13v1.58l3.84-0.16v0.04
	l4.17-0.16l-0.12-1.3h0.87v1.47l3.4-0.17v-1.18h0.8v1.05l3.28,0.17v-5.82l-0.5,0c-0.13,0-13.18-0.12-21.37,0
	c-3.09,0.04-4.81,0.51-5.76,1.56c-1.2,1.32-1.03,3.37-0.77,6.47c0.11,1.31,0.23,2.79,0.28,4.49l0.71-0.02l0.01,0.08
	c2.8,19.23-3.62,25.42-3.68,25.48l-0.16,0.15l0,4.44l0.59-0.11c0.02,0,2.05-0.37,6.23-0.02c4.71,0.4,5.57-3.96,5.58-4.1v-14.26h0.68
	v8.17c-0.04,0.07-0.07,0.15-0.07,0.23c-0.04,0.48,0.4,0.8,1.95,1.4c0.4,0.15,0.76,0.23,1.1,0.23c0.39,0,0.73-0.1,1.03-0.31
	c0.88-0.6,1.07-1.92,1.07-2.91v-6.82h1.08V400.87z M131.32,390.87c-0.06-1.52-0.16-2.87-0.26-4.06c-0.24-2.84-0.39-4.71,0.51-5.71
	c0.73-0.81,2.29-1.19,5.04-1.23c7.27-0.11,18.39-0.02,20.85,0v3.78l-1.28-0.07v-1.11h-2.8v1.22l-1.4,0.07v-1.41h-2.97l0.12,1.34
	l-2.07,0.08v-1.32l-1.96,0.49v0.87l-1.88,0.08v-1.54h-4.11l-0.14,8.08h1.85v-1.08h0.38v1.08h3.47v-1.2h0.43v1.08h10.92v0.56h-0.34
	H131.32z M144.38,409.85c0,1.05-0.23,1.81-0.63,2.08c-0.27,0.19-0.68,0.17-1.21-0.03c-0.71-0.28-1.07-0.45-1.24-0.56v-8.32h3.08
	V409.85z M145.46,402.03h-6.84l0.01,15.17c-0.03,0.14-0.67,3.51-4.51,3.19c-1.4-0.12-2.56-0.16-3.5-0.16c-1.12,0-1.91,0.06-2.4,0.11
	v-2.85c1.04-1.1,6.39-7.71,3.92-25.63h23.04v4.4h-6.84v3.6h-2.88V402.03z"/>
<path d="M181.14,412.07h-13.58l-0.08-2.39h13.66v-7.65h-13.9l0.08-2.36h13.82v-8.8H159.5v30.54h21.64V412.07z M180.14,420.41H160.5
	v-28.54h19.64v6.8h-13.78l-0.16,4.36h13.94v5.65h-13.7l0.16,4.39h13.54V420.41z"/>
<path d="M203.78,405.22c1.35-0.79,1.89-3.05,1.95-3.3l0.01-0.07l-0.24-5.23c-0.26-5.55-3.69-5.75-3.86-5.76h-18.5v30.54h7.72
	l0.12-11.73h7.4l-0.12,11.73h7.49v-9.88c0-2.24-2.12-3.78-2.88-4.26v-1.77C203.18,405.48,203.49,405.39,203.78,405.22z
	 M201.86,407.84l0.26,0.14c0.03,0.01,2.62,1.47,2.62,3.54v8.88h-5.47l0.12-11.73h-9.4l-0.12,11.73h-5.73v-28.54l17.48,0
	c0.11,0.01,2.67,0.21,2.88,4.8l0.24,5.09c-0.15,0.62-0.67,2.13-1.46,2.6c-0.25,0.14-0.49,0.17-0.77,0.09l-0.64-0.19L201.86,407.84z"
	/>
<path d="M231.3,421.41v-10.48c0-1.21-0.7-3.51-3.27-3.93l-0.08-1.32c0.83-0.52,3.11-2.09,3.34-3.87v-5.88l-0.01-0.11
	c-0.04-0.16-0.96-4.04-5.06-4.94l-17.53-0.01v30.54h7.84v-11.73h6.68v11.73H231.3z M215.54,408.68v11.73h-5.84v-28.54h16.36
	c3.24,0.74,4.12,3.68,4.24,4.12l0,5.75c-0.17,1.27-2.31,2.77-3.11,3.23l-0.27,0.15l0.16,2.78l0.44,0.03
	c2.73,0.2,2.78,2.87,2.78,2.98v9.48h-6.08v-11.73H215.54z"/>
<path d="M234.26,421.41h20.68v-8.7l-12.7-0.12l0.09-2.91h12.62v-7.65l-12.72-0.12v-2.84h12.72v-8.2h-20.68V421.41z M235.26,391.87
	h18.68v6.2h-12.72v4.83l12.72,0.12v5.66h-12.58l-0.15,4.9l12.74,0.12v6.71h-18.68V391.87z"/>
<path d="M271.38,400.75l16.77,17.01l17.07-16.79v20.45h14.04v-37.5H305.5l-17.05,18.03l-17.36-18.03h-13.43v37.5h13.72V400.75z
	 M270.38,420.41h-11.72v-35.5h12.01l17.8,18.48l17.47-18.48h12.32v35.5h-12.04v-21.84l-18.05,17.77l-17.79-18.03V420.41z"/>
<path d="M325.72,418.54l23.78,6.98v-8.78l-21.74-6.75L325.72,418.54z M348.5,417.48v6.7l-21.58-6.34l1.57-6.58L348.5,417.48z"/>
<path d="M351.79,424.63l15.94-7.68l5.92-11l-20.78,11.47L351.79,424.63z M353.78,418.06l17.38-9.59l-4.16,7.72l-13.94,6.72
	L353.78,418.06z"/>
<path d="M345.68,374.62L327.8,387.7v20.78l23.6,7.56l22.99-12.97l-2.79-19.02L345.68,374.62z M351.28,414.95l-22.48-7.2V388.2
	l17.04-12.46l24.85,9.04l2.61,17.76L351.28,414.95z"/>
<path d="M354.58,383.94c-2.61-0.99-9.15-0.07-9.43-0.03l-0.03,0.01c-0.11,0.02-9.93,2.18-10.21,11.19l-0.05,0.04l0.05-0.02
	c-0.02,0.65,0.01,1.33,0.09,2.05c1.09,9.02,13.18,9.84,17.54,9.84c0.85,0,1.41-0.03,1.53-0.04l0.14-0.03
	c0.39-0.14,9.62-3.59,11.47-10.42C367.63,389.32,356.77,384.78,354.58,383.94z M364.72,396.28c-1.63,6.04-9.94,9.39-10.78,9.72
	c-1,0.05-11.77,0.41-16.16-4.8c-0.04-0.03-0.08-0.06-0.12-0.09c-0.14-0.13-0.25-0.3-0.32-0.47c-0.69-0.99-1.18-2.16-1.35-3.56
	c-0.1-0.83-0.11-1.6-0.07-2.33l1.91-0.74c2.81-1.09,10.54-3.89,12.53-3.75c2.33,0.17,5.02,0.03,5.58,0c1.4,0.49,3.4,1.4,4.6,2.33
	c0,0,0.01,0,0.01,0c0.16,0,0.29,0.08,0.38,0.2c0.07,0.04,0.13,0.09,0.17,0.17c0.03,0.06,0.07,0.11,0.1,0.17
	c0.14,0.12,0.29,0.24,0.48,0.35c0.3,0.17,0.61,0.31,0.92,0.45c0.03,0.01,0.05,0.02,0.08,0.04c0.04-0.75-1.43-5.1-6.46-7.53
	l-0.14-0.04c-0.13-0.02-3.36-0.55-7.17,0c-3.87,0.55-11.27,6.51-11.58,6.77l-1.37,1.11c0.82-7.39,8.79-9.23,9.33-9.35
	c0.36-0.05,6.6-0.91,8.92-0.03C356.28,385.66,366.44,389.89,364.72,396.28z M340.68,391.88c2.51-1.8,6.18-4.2,8.4-4.51
	c1.23-0.18,2.4-0.23,3.42-0.23c1.77,0,3.07,0.18,3.38,0.22c2.24,1.1,3.7,2.63,4.59,3.93c-1.71-1.11-3.91-1.89-4.28-2.01l-0.09-0.03
	l-0.1,0.01c-0.03,0-3.06,0.18-5.55,0.01C348.72,389.13,343.93,390.71,340.68,391.88z"/>
<path d="M354.01,390.71l-0.15-0.02c-0.21,0-5.17,0.01-7.42,0.95c-1.44,0.71-3.88,1.95-5.91,3.2c-0.01,0.09-0.05,0.19-0.13,0.27
	c-0.63,0.62-1.35,1.21-1.84,1.94c-0.06,0.09-0.15,0.16-0.24,0.2c-0.15,0.47-0.31,0.94-0.6,1.36c-0.05,0.07-0.11,0.12-0.17,0.15
	l0.04,0.03l0.29-0.14c0.09-0.04,8.68-4.08,12.58-3.73c0.06,0,4.78-0.41,8.01,1.62c0.14-0.01,0.29,0.04,0.41,0.13
	c0.97,0.84,1.96,1.73,2.6,2.86c0.04,0.08,0.06,0.16,0.06,0.24c0.13,0.09,0.25,0.13,0.37,0.13c0.06,0,0.11-0.01,0.17-0.02
	c0.2-0.06,0.42-0.25,0.42-0.61C362.5,398.06,359.34,392.35,354.01,390.71z M350.45,393.93c-3.09-0.27-8.75,1.96-11.47,3.14
	c1.57-1.18,4.85-3.03,7.87-4.52c1.9-0.79,6.3-0.86,6.93-0.86c2.75,0.87,4.85,2.93,6.16,4.7
	C356.47,393.4,350.65,393.91,350.45,393.93z"/>
<path d="M320.42,402.66l4.78,14.48v-27.94l-4.78,8.88V402.66z M321.42,398.34l2.78-5.16v17.78l-2.78-8.38V398.34z"/>
<path d="M420.15,408.11l-27.44-23.24l-0.14-0.12h-13.28v36.66h13.42V397.7l26.85,23.71h15.27v-36.66h-14.5L420.15,408.11z
	 M421.32,385.75h12.5v34.66h-13.89l-28.23-24.93v24.93h-11.42v-34.66h11.92l28.94,24.5L421.32,385.75z"/>
<path d="M435.98,394.44h16.74v26.98h13.96v-26.98h17.54v-9.69h-48.24V394.44z M436.98,385.75h46.24v7.69h-17.54v26.98h-11.96v-26.98
	h-16.74V385.75z"/>
<path class="st0" d="M129.87,428.63h4.4v15.05h5.9v-15.05h4.49v-5.65h-14.79V428.63z M130.87,423.99h12.79v3.65h-4.49v15.05h-3.9
	v-15.05h-4.4V423.99z"/>
<path class="st0" d="M145.63,427.34h5v-4.35h-5V427.34z M146.63,423.99h3v2.35h-3V423.99z"/>
<path class="st0" d="M145.63,443.68h5v-14.63h-5V443.68z M146.63,430.05h3v12.63h-3V430.05z"/>
<path class="st0" d="M156.25,438.31c-0.04-0.05-0.12-0.16-0.13-0.38h8.58l0-4.64c-0.01-0.05-0.58-5.01-6.73-5.01
	c-6.2,0-6.27,5.73-6.27,5.79v4.52l0.03,0.16c0.06,0.18,1.53,4.34,4.82,4.34c0.05,0,0.11,0,0.17,0l3.87,0l0.2-0.04
	c0.13-0.06,3.18-1.41,3.89-3.53l0.22-0.66h-7.05C157.54,438.86,156.59,438.75,156.25,438.31z M160.47,442.09l-3.78,0
	c-2.46,0.11-3.79-3.06-4-3.59v-4.43c0-0.2,0.08-4.79,5.27-4.79c5.22,0,5.72,3.94,5.73,4.06v3.59h-8.4l-0.1,0.37
	c-0.21,0.79,0.02,1.32,0.26,1.62c0.7,0.91,2.21,0.94,2.38,0.94h5.55C162.58,441.05,160.88,441.9,160.47,442.09z"/>
<path class="st0" d="M177.16,428.83c-0.95-0.78-2.27-0.96-3.89-0.54c-0.07,0.01-1.64,0.29-2.44,1.72l-0.01,0v-1.72h-5.06v14.81h5.06
	v-8.87c0.29-0.41,0.97-1.2,1.55-1.14c0.44,0.04,0.78,0.6,1,1.09v8.92h5.26l0-10.44C178.64,432.54,178.74,430.11,177.16,428.83z
	 M177.63,432.62v9.47h-3.26v-8.02l-0.04-0.19c-0.48-1.12-1.11-1.73-1.88-1.79c-1.35-0.11-2.44,1.53-2.56,1.72l-0.08,0.12v8.17h-3.06
	v-12.81h3.06v1.89l1.69-0.26l0.11-0.25c0.52-1.15,1.77-1.38,1.86-1.4c1.33-0.34,2.35-0.23,3.05,0.34
	C177.71,430.56,177.63,432.58,177.63,432.62z"/>
<path class="st0" d="M188.95,433.98c-0.17-0.94-0.99-2.74-2.87-2.86c-1.91-0.11-2.76,1.82-2.93,2.87l-0.1,0.58h6.01L188.95,433.98z
	 M184.29,433.57c0.22-0.63,0.72-1.52,1.72-1.45c1.01,0.07,1.52,0.87,1.76,1.45H184.29z"/>
<path class="st0" d="M200.86,443.09h4.88v-20.1h-4.88V443.09z M201.86,423.99h2.88v18.1h-2.88V423.99z"/>
<path class="st0" d="M217.23,428.14l-0.12-0.07l-5.02,0c-1.56,0.15-2.72,0.72-3.43,1.68c-1.04,1.4-0.71,3.12-0.69,3.19l0.08,0.4
	h4.33l0.06-0.43c0-0.01,0.12-0.75,0.73-1.09c0.5-0.28,1.23-0.23,2.14,0.12v1.19c-0.24,0.1-0.78,0.24-1.23,0.36
	c-1.89,0.49-5.05,1.31-6.13,3.59c-1.31,2.75,0.58,5.07,1.76,5.92l0.13,0.09h3.89c0.12,0.05,0.24,0.07,0.37,0.07
	c0.1,0,0.19-0.01,0.29-0.04c0.46-0.12,0.92-0.54,1.3-1v0.97h4.1v-11.48C219.8,429.67,217.34,428.2,217.23,428.14z M218.8,442.09
	h-2.1v-3.46l-0.93,1.64c-0.62,1.08-1.4,1.92-1.66,1.89l-0.12-0.07h-3.81c-0.52-0.42-2.45-2.2-1.32-4.58
	c0.88-1.85,3.65-2.57,5.48-3.05c1.32-0.34,1.98-0.51,1.98-1.13v-2.05l-0.3-0.13c-1.37-0.61-2.49-0.68-3.33-0.21
	c-0.67,0.37-0.98,0.98-1.13,1.39h-2.65c-0.02-0.48,0.04-1.31,0.56-2c0.54-0.72,1.45-1.15,2.67-1.27h4.7
	c0.64,0.41,1.96,1.47,1.96,2.54V442.09z"/>
<path class="st0" d="M211.32,439.01c0.06,0.83,0.43,1.24,0.73,1.44c0.31,0.2,0.65,0.26,0.94,0.26c0.25,0,0.47-0.04,0.58-0.08
	c0.24-0.01,0.87-0.08,1.39-0.58c0.47-0.45,0.71-1.11,0.71-1.97v-2.85l-0.68,0.26C214.6,435.65,211.16,437.02,211.32,439.01z
	 M214.67,438.09c0,0.56-0.13,0.98-0.4,1.24c-0.31,0.31-0.74,0.31-0.76,0.31c0,0,0,0,0,0l-0.09,0l-0.09,0.03
	c-0.09,0.03-0.49,0.11-0.73-0.05c-0.16-0.11-0.26-0.34-0.29-0.68c-0.06-0.8,1.3-1.68,2.36-2.2V438.09z"/>
<path class="st0" d="M235.27,433.38c-0.39-0.12-0.74-0.21-1.06-0.28c-0.68-0.16-1.04-0.25-1.14-0.51c-0.1-0.25-0.03-0.67,0.18-1.03
	c0.16-0.29,0.35-0.43,0.46-0.45c0.08-0.01,0.25,0.17,0.41,0.33c0.24,0.25,0.53,0.55,0.98,0.81c1.22,0.7,2.88,0.61,3.89,0.16
	c0.54-0.24,0.88-0.58,0.96-0.97v0c0.08-0.39-0.07-0.82-0.47-1.28c-1.02-1.19-3.41-2.34-5.65-2.2c-0.61,0.04-2.24,0.14-3.53,1.47
	c-1.55,1.61-2.01,4.38-0.96,5.8c0.44,0.6,0.97,0.73,1.64,0.9c0.58,0.15,1.37,0.35,2.54,0.93c1.22,0.61,1.97,1.01,2.01,1.52
	c0.02,0.28-0.14,0.65-0.4,0.93c-0.19,0.2-0.43,0.32-0.57,0.32c-0.18,0-0.36-0.26-0.62-0.69c-0.34-0.56-0.77-1.26-1.63-1.56
	c-0.7-0.25-1.6-0.17-2.35,0.2c-0.58,0.29-0.99,0.72-1.15,1.2c-0.52,1.61,1.7,3.83,3.96,4.67c0.37,0.14,1.22,0.46,2.28,0.46
	c0.65,0,1.37-0.12,2.11-0.47c2.26-1.08,3.69-3.86,3.13-6.07C239.62,434.95,236.28,433.7,235.27,433.38z M236.73,442.73
	c-1.56,0.75-3.1,0.17-3.61-0.02c-2.02-0.75-3.63-2.6-3.36-3.43c0.07-0.22,0.31-0.45,0.64-0.61c0.32-0.16,0.68-0.24,1.01-0.24
	c0.2,0,0.39,0.03,0.56,0.09c0.53,0.18,0.82,0.67,1.11,1.14c0.33,0.54,0.7,1.15,1.44,1.17c0.49,0,0.94-0.22,1.33-0.64
	c0.46-0.49,0.72-1.14,0.67-1.7c-0.1-1.1-1.24-1.67-2.56-2.32c-1.27-0.63-2.12-0.84-2.74-1c-0.65-0.16-0.86-0.23-1.08-0.53
	c-0.76-1.03-0.33-3.27,0.87-4.52c1.01-1.05,2.31-1.13,2.87-1.17c1.83-0.1,3.73,0.76,4.66,1.68c0.33,0.32,0.41,0.54,0.42,0.6
	c-0.03,0.05-0.18,0.2-0.59,0.34c-0.74,0.25-1.93,0.3-2.79-0.19c-0.32-0.18-0.54-0.41-0.76-0.63c-0.33-0.34-0.69-0.72-1.28-0.63
	c-0.45,0.07-0.88,0.41-1.18,0.94c-0.28,0.49-0.49,1.25-0.24,1.9c0.3,0.75,1.05,0.93,1.84,1.11c0.3,0.07,0.63,0.15,0.99,0.26
	c0.63,0.2,3.79,1.31,4.35,3.49C239.77,439.56,238.56,441.86,236.73,442.73z"/>
<path class="st0" d="M247.72,427.95C247.72,427.95,247.72,427.95,247.72,427.95c-3.61,0-6.32,3.85-6.5,7.31
	c-0.12,2.34,0.9,4.86,2.67,6.59c1.23,1.2,2.67,1.84,4.1,1.84c0.12,0,0.25,0,0.37-0.01c1.41-0.11,2.73-0.85,3.81-2.13
	c1.46-1.73,2.24-4.19,2.04-6.42C253.91,431.66,251.22,427.95,247.72,427.95z M251.41,440.9c-0.63,0.75-1.69,1.67-3.13,1.78
	c-1.26,0.1-2.57-0.45-3.7-1.55c-1.54-1.5-2.47-3.79-2.37-5.82c0.16-3.01,2.45-6.37,5.5-6.37c0,0,0,0,0,0c3.22,0,5.27,3.64,5.5,6.26
	C253.4,437.19,252.7,439.37,251.41,440.9z"/>
<path class="st0" d="M255.38,443.16h5.2v-20.25h-5.2V443.16z M256.38,423.91h3.2v18.25h-3.2V423.91z"/>
<path class="st0" d="M269.54,437.95c-0.15,0.21-0.63,0.74-1.58,0.58l-0.39-0.06c-0.07-0.12-0.17-0.29-0.27-0.5v-10.05l-5.08,0.16
	l0.01,11.49c0.03,0.15,0.67,3.58,3.1,3.58c0.01,0,0.03,0,0.04,0l3.12-0.05l0.11-0.06c0.04-0.02,0.75-0.41,1.42-1v1.11l4.84,0v-15.09
	h-5.45L269.54,437.95z M270.43,429.07h3.43v13.09l-2.84,0v-3.4l-0.94,1.69c-0.44,0.79-1.52,1.47-1.86,1.66l-2.87,0.05
	c-1.61,0.02-2.12-2.67-2.13-2.67v-10.44l3.08-0.1v9.25l0.05,0.1c0.48,0.98,0.9,1.56,1.45,1.48c0.17-0.03,0.29-0.11,0.38-0.22
	c1.29,0.04,2.06-0.77,2.31-1.25l0.05-0.11L270.43,429.07z"/>
<path class="st0" d="M286.39,436.13c-0.97-0.04-1.88,0.35-2.41,1.01c-0.4,0.49-0.39,1.01-0.38,1.39c0,0.12,0,0.3-0.01,0.34
	c-0.06,0.05-0.35,0.1-0.84-0.05c-0.89-0.27-2-1.09-2.35-2.23c-0.35-1.15,0.13-2.4,0.65-3.13c0.39-0.54,0.87-0.9,1.22-0.91
	c0.17-0.01,0.37,0.14,0.7,0.51c0.37,0.4,0.87,0.95,1.75,1.16c1.15,0.27,2.39-0.13,3.12-0.65c0.5-0.36,0.79-0.78,0.83-1.22
	c0.09-0.89-0.83-1.75-1.38-2.18c-1.64-1.28-4.48-2.29-6.84-1.46c-1.66,0.58-3.07,2.07-3.86,4.08c-0.95,2.41-0.88,5.16,0.19,7.18
	c0.84,1.61,2.68,3.43,5.31,3.72c0.03,0,0.24,0.03,0.57,0.03c1.09,0,3.49-0.24,5.04-2.23c0.21-0.27,2.05-2.71,0.89-4.32
	C288.13,436.54,287.32,436.16,286.39,436.13z M286.9,440.86c-1.67,2.14-4.67,1.83-4.7,1.82c-2.24-0.25-3.81-1.81-4.53-3.19
	c-0.93-1.77-0.98-4.2-0.14-6.35c0.69-1.74,1.87-3.02,3.26-3.5c0.5-0.17,1.02-0.25,1.55-0.25c1.61,0,3.26,0.71,4.34,1.55
	c0.77,0.6,1.02,1.11,1,1.3c-0.01,0.1-0.13,0.3-0.42,0.51c-0.54,0.39-1.51,0.68-2.31,0.49c-0.58-0.14-0.9-0.49-1.24-0.86
	c-0.36-0.4-0.76-0.82-1.46-0.83c-0.68,0.02-1.42,0.5-2.01,1.32c-0.69,0.95-1.26,2.5-0.8,4c0.46,1.5,1.84,2.53,3.01,2.89
	c0.75,0.23,1.37,0.19,1.76-0.13c0.4-0.32,0.39-0.79,0.39-1.13c-0.01-0.33,0-0.54,0.16-0.74c0.34-0.42,0.93-0.65,1.61-0.64
	c0.61,0.02,1.15,0.25,1.41,0.61C288.36,438.57,287.46,440.15,286.9,440.86z"/>
<path class="st0" d="M290.3,427.51h6.16v-4.6h-6.16V427.51z M291.3,423.91h4.16v2.6h-4.16V423.91z"/>
<path class="st0" d="M290.34,429.09c0.14,0.9,0.05,8.74-0.04,13.56l-0.01,0.51h6.17v-14.77h-6.54L290.34,429.09z M291.35,429.39
	h4.11v12.77h-4.15C291.46,433.67,291.42,430.57,291.35,429.39z"/>
<path class="st0" d="M304.92,426.93C304.92,426.93,304.92,426.93,304.92,426.93c-3.61,0-6.32,4.2-6.5,7.98
	c-0.13,2.69,1.03,5.62,2.95,7.47c1.16,1.12,2.51,1.72,3.82,1.72c0.12,0,0.25-0.01,0.37-0.02c3.7-0.32,6.19-5.28,5.85-9.32
	C311.11,431,308.54,426.94,304.92,426.93z M305.47,443.09c-1.14,0.1-2.35-0.41-3.41-1.43c-1.72-1.66-2.76-4.29-2.65-6.7
	c0.16-3.32,2.46-7.03,5.5-7.03c0,0,0,0,0,0c2.95,0,5.23,3.58,5.5,6.91C310.71,438.36,308.56,442.82,305.47,443.09z"/>
<path class="st1" d="M247.73,431.67C247.73,431.67,247.73,431.67,247.73,431.67c-1.34,0-2.24,1.93-2.29,3.71
	c-0.05,1.46,0.5,3.05,1.31,3.79c0.4,0.36,0.78,0.46,1.06,0.46c0.06,0,0.11,0,0.16-0.01c1.34-0.17,2.16-2.4,2.05-4.31
	C249.94,433.8,249.17,431.67,247.73,431.67z M247.84,438.63c-0.16,0.02-0.32-0.09-0.43-0.19c-0.52-0.47-1.03-1.73-0.99-3.02
	c0.05-1.36,0.7-2.75,1.29-2.75h0c0.58,0,1.22,1.34,1.3,2.7C249.11,436.96,248.43,438.55,247.84,438.63z"/>
<path class="st0" d="M304.92,430.98C304.92,430.98,304.92,430.98,304.92,430.98c-1.67,0-2.87,2.19-2.95,4.23
	c-0.06,1.58,0.56,3.26,1.55,4.19c0.47,0.44,0.99,0.67,1.51,0.67c0.06,0,0.13,0,0.19-0.01c1.69-0.18,2.8-2.75,2.65-4.92
	C307.74,433.13,306.58,430.98,304.92,430.98z M305.12,439.06c-0.36,0.04-0.7-0.19-0.91-0.39c-0.76-0.71-1.28-2.15-1.23-3.42
	c0.06-1.51,0.92-3.27,1.95-3.27h0c1,0,1.85,1.7,1.95,3.22C307,436.97,306.09,438.95,305.12,439.06z"/>
<path class="st0" d="M300.73,426.19h2.9l3.54-3.28h-3.52L300.73,426.19z M304.62,423.91l-1.38,1.28h-0.28l1.14-1.28H304.62z"/>
<path class="st0" d="M324.17,429.72c-0.95-0.78-2.27-0.96-3.89-0.54c-0.07,0.01-1.64,0.29-2.44,1.72l-0.01,0v-1.72h-5.06v14.81h5.06
	v-8.87c0.32-0.46,1.01-1.18,1.55-1.14c0.44,0.04,0.78,0.59,1,1.09v8.92h5.26l0-10.44C325.65,433.44,325.75,431,324.17,429.72z
	 M324.64,433.51v9.47h-3.26v-8.02l-0.04-0.19c-0.48-1.12-1.11-1.73-1.88-1.79c-1.37-0.12-2.44,1.53-2.56,1.72l-0.08,0.12v8.17h-3.06
	v-12.81h3.06v1.89l1.69-0.26l0.11-0.25c0.52-1.15,1.77-1.38,1.86-1.4c1.33-0.34,2.35-0.23,3.05,0.34
	C324.72,431.45,324.64,433.47,324.64,433.51z"/>
<path class="st0" d="M161.09,434.18c-0.17-0.94-0.99-2.74-2.87-2.86c-1.91-0.12-2.76,1.82-2.93,2.87l-0.1,0.58h6.01L161.09,434.18z
	 M156.44,433.77c0.22-0.63,0.72-1.52,1.72-1.45c1.01,0.07,1.52,0.87,1.76,1.45H156.44z"/>
<path class="st0" d="M184.1,438.45c-0.04-0.05-0.12-0.16-0.13-0.38h8.58l0-4.64c-0.01-0.05-0.58-5.01-6.73-5.01
	c-6.2,0-6.27,5.73-6.27,5.79v4.52l0.03,0.16c0.06,0.18,1.53,4.34,4.82,4.34c0.05,0,0.11,0,0.17,0l3.87,0l0.2-0.04
	c0.13-0.06,3.18-1.41,3.89-3.53l0.22-0.66h-7.05C185.39,439,184.44,438.89,184.1,438.45z M188.33,442.23l-3.78,0
	c-2.47,0.09-3.79-3.06-4-3.59v-4.43c0-0.2,0.06-4.79,5.27-4.79c5.23,0,5.72,3.94,5.73,4.06v3.59h-8.4l-0.1,0.37
	c-0.21,0.79,0.02,1.32,0.26,1.62c0.7,0.91,2.21,0.94,2.38,0.94h5.55C190.43,441.19,188.74,442.04,188.33,442.23z"/>
<polyline class="st1" points="190.7,399.86 190.7,404 198.44,404 198.44,399.86 "/>
<polyline class="st1" points="216.13,399.86 216.13,404 223.87,404 223.87,399.86 "/>
</svg>
