<svg xmlns="http://www.w3.org/2000/svg" viewBox="0 0 357 69.49"><defs><style>.cls-1{fill:#e30613;}.cls-2{fill:#fff;}</style></defs><title>Recurso 1</title><g id="Capa_2" data-name="Capa 2"><g id="Capa_1-2" data-name="Capa 1"><path class="cls-1" d="M107.75,59.71c-.36-.11-.69-.19-1-.26-.79-.19-1.54-.36-1.84-1.11a2.27,2.27,0,0,1,.24-1.9,1.75,1.75,0,0,1,1.18-.94,1.44,1.44,0,0,1,1.28.63,3.23,3.23,0,0,0,.76.63,3.7,3.7,0,0,0,2.79.19,1.27,1.27,0,0,0,.59-.34c0-.06-.08-.27-.42-.6a6.71,6.71,0,0,0-4.66-1.68,4.1,4.1,0,0,0-2.87,1.17c-1.2,1.25-1.63,3.48-.87,4.52.22.3.43.36,1.08.53a12.5,12.5,0,0,1,2.74,1c1.32.66,2.47,1.22,2.56,2.32a2.3,2.3,0,0,1-.67,1.7,1.8,1.8,0,0,1-1.33.64c-.74,0-1.11-.63-1.44-1.17a2.37,2.37,0,0,0-1.11-1.14,1.69,1.69,0,0,0-.56-.09,2.24,2.24,0,0,0-1,.24,1.19,1.19,0,0,0-.64.61c-.27.83,1.34,2.68,3.36,3.43a4.57,4.57,0,0,0,3.61,0,4.7,4.7,0,0,0,2.59-4.92C111.54,61,108.38,59.91,107.75,59.71Z"/><path class="cls-1" d="M89.62,54.45h-4.7a3.62,3.62,0,0,0-2.67,1.27,3.14,3.14,0,0,0-.56,2h2.65a2.5,2.5,0,0,1,1.13-1.39,3.69,3.69,0,0,1,3.33.21l.3.13v2c0,.62-.66.79-2,1.13-1.83.48-4.6,1.2-5.48,3-1.13,2.38.8,4.16,1.32,4.58h3.81l.12.07c.25,0,1-.8,1.66-1.89L89.48,64v3.46h2.1V57C91.58,55.92,90.26,54.86,89.62,54.45Zm-1.17,9a2.62,2.62,0,0,1-.71,2,2.16,2.16,0,0,1-1.39.58,2.35,2.35,0,0,1-.58.08,1.72,1.72,0,0,1-.94-.26,1.77,1.77,0,0,1-.73-1.44c-.15-2,3.28-3.36,3.68-3.51l.68-.26v2.84Z"/><path d="M97,45.79h6.08V36.31a3,3,0,0,0-2.78-3l-.44,0-.16-2.78.27-.15c.81-.47,2.94-2,3.11-3.23V21.39a5.79,5.79,0,0,0-4.24-4.12H82.48V45.81h5.84V34.08H97Z"/><path class="cls-2" d="M85.1,64.31a.85.85,0,0,0,.29.68,1,1,0,0,0,.73.05l.09,0h.09a1.15,1.15,0,0,0,.76-.31,1.69,1.69,0,0,0,.4-1.24V62.1C86.39,62.63,85,63.52,85.1,64.31Z"/><path d="M76.05,29.74a4.71,4.71,0,0,0,1.46-2.6l-.24-5.09c-.21-4.6-2.78-4.8-2.88-4.8H56.91V45.79h5.73l.12-11.73h9.4L72,45.79h5.47V36.91c0-2.07-2.59-3.53-2.62-3.54l-.26-.14V29.65l.64.19A1,1,0,0,0,76.05,29.74Z"/><path class="cls-1" d="M168.24,67.54V54.77h-4.11c.07,1.17.11,4.28,0,12.77Z"/><rect class="cls-1" x="129.16" y="49.29" width="3.2" height="18.25"/><path class="cls-2" d="M120.51,58.05h0c-.6,0-1.25,1.39-1.29,2.75a4.34,4.34,0,0,0,1,3,.56.56,0,0,0,.43.19c.59-.07,1.27-1.67,1.18-3.26C121.73,59.39,121.08,58.05,120.51,58.05Z"/><path class="cls-1" d="M159.14,62.51a2,2,0,0,0-1.61.64,1.07,1.07,0,0,0-.16.74A1.28,1.28,0,0,1,157,65a1.91,1.91,0,0,1-1.76.13,4.65,4.65,0,0,1-3-2.89,4.71,4.71,0,0,1,.8-4,2.75,2.75,0,0,1,2-1.32,2,2,0,0,1,1.46.83,2.39,2.39,0,0,0,1.24.86,3.15,3.15,0,0,0,2.31-.49c.29-.21.41-.4.42-.51s-.23-.7-1-1.3a7.48,7.48,0,0,0-4.34-1.55,4.79,4.79,0,0,0-1.55.25,5.82,5.82,0,0,0-3.26,3.5,7.89,7.89,0,0,0,.14,6.35A6,6,0,0,0,155,68.07s3,.31,4.7-1.82c.56-.72,1.46-2.29.87-3.12A1.75,1.75,0,0,0,159.14,62.51Z"/><path class="cls-1" d="M141,64.94a.63.63,0,0,1-.38.22c-.55.09-1-.49-1.45-1.48l0-.1V54.33l-3.08.1V64.87s.52,2.69,2.13,2.67l2.87-.05a5.51,5.51,0,0,0,1.86-1.66l.94-1.69v3.4h2.84V54.45h-3.43l.11,9.13,0,.11A2.49,2.49,0,0,1,141,64.94Z"/><path class="cls-1" d="M120.5,54.33h0c-3,0-5.34,3.35-5.5,6.37a7.92,7.92,0,0,0,2.37,5.82,4.84,4.84,0,0,0,3.7,1.55,4.67,4.67,0,0,0,3.13-1.78A8,8,0,0,0,126,60.6C125.77,58,123.72,54.33,120.5,54.33ZM120.75,65h-.16a1.51,1.51,0,0,1-1.06-.46,5.28,5.28,0,0,1-1.31-3.79c.06-1.79,1-3.71,2.29-3.71h0c1.44,0,2.21,2.13,2.29,3.64C122.91,62.6,122.09,64.83,120.75,65Z"/><polygon points="126.72 39.09 113.98 38.97 114.14 34.06 126.72 34.06 126.72 28.41 114 28.29 114 23.45 126.72 23.45 126.72 17.25 108.04 17.25 108.04 45.79 126.72 45.79 126.72 39.09"/><path class="cls-1" d="M56.09,64.44a1.79,1.79,0,0,1-.26-1.62l.1-.37h8.4V58.86c0-.11-.51-4.06-5.73-4.06s-5.27,4.6-5.27,4.79V64c.2.53,1.53,3.68,4,3.59h3.78A8,8,0,0,0,64,65.38H58.47A3.3,3.3,0,0,1,56.09,64.44Zm-.16-5.07c.17-1,1-3,2.93-2.87a3.39,3.39,0,0,1,2.87,2.86l.11.59h-6Z"/><polygon class="cls-1" points="8.05 68.06 11.95 68.06 11.95 53.01 16.45 53.01 16.45 49.37 3.65 49.37 3.65 53.01 8.05 53.01 8.05 68.06"/><polygon points="39.22 34.06 52.92 34.06 52.92 28.41 38.98 28.41 39.14 24.05 52.92 24.05 52.92 17.25 33.28 17.25 33.28 45.79 52.92 45.79 52.92 38.45 39.38 38.45 39.22 34.06"/><path d="M28.8,16.25v-.56H17.88V14.61h-.43v1.2H14V14.73H13.6v1.08H11.75l.14-8.08H16V9.27l1.88-.08V8.32l2-.49V9.15l2.07-.08-.12-1.34h3V9.14l1.4-.07V7.85H29V9L30.24,9V5.25c-2.47,0-13.58-.1-20.85,0-2.75,0-4.3.42-5,1.23-.91,1-.75,2.88-.51,5.71.1,1.19.21,2.54.26,4.06H28.8Z"/><path d="M14.08,36.73a10.34,10.34,0,0,0,1.24.56,1.32,1.32,0,0,0,1.21,0,2.62,2.62,0,0,0,.63-2.08V28.42H14.08v8.31Z"/><polygon class="cls-1" points="176.02 50.57 177.4 49.29 176.87 49.29 175.73 50.57 176.02 50.57"/><path class="cls-2" d="M58.8,57.5c-1-.07-1.5.83-1.72,1.45h3.49A2.13,2.13,0,0,0,58.8,57.5Z"/><polygon points="179 23.96 179 45.79 191.04 45.79 191.04 10.29 178.72 10.29 161.24 28.77 143.45 10.29 131.44 10.29 131.44 45.79 143.16 45.79 143.16 23.69 160.95 41.72 179 23.96"/><path class="cls-1" d="M21.12,21.65H28v-4.4h-23C7.39,35.17,2.05,41.78,1,42.88v2.85a23.5,23.5,0,0,1,2.4-.11c.94,0,2.1,0,3.5.16a4,4,0,0,0,4.51-3.19V27.42h6.84V25.26h2.88V21.65Z"/><path class="cls-1" d="M46.26,54.64A2.65,2.65,0,0,0,44.4,56l-.11.25-1.69.26V54.66H39.54V67.47H42.6V59.3l.08-.12c.12-.19,1.21-1.83,2.56-1.72.77.06,1.4.67,1.88,1.79l0,.19v8h3.26V58a4.13,4.13,0,0,0-1.1-3A3.41,3.41,0,0,0,46.26,54.64Z"/><path class="cls-2" d="M30.94,57.69c-1-.06-1.5.83-1.72,1.45h3.49A2.14,2.14,0,0,0,30.94,57.69Z"/><path class="cls-1" d="M28.24,64.3A1.79,1.79,0,0,1,28,62.68l.1-.37h8.4V58.72c0-.11-.51-4.06-5.73-4.06a4.84,4.84,0,0,0-5.27,4.79v4.43c.2.53,1.54,3.7,4,3.59h3.78a8,8,0,0,0,2.91-2.23H30.62A3.29,3.29,0,0,1,28.24,64.3Zm-.17-4.74c.17-1.05,1-3,2.93-2.87a3.39,3.39,0,0,1,2.87,2.86l.11.59H28Z"/><rect class="cls-1" x="19.41" y="49.37" width="3" height="2.35"/><rect class="cls-1" x="19.41" y="55.43" width="3" height="12.63"/><rect class="cls-1" x="74.64" y="49.37" width="2.88" height="18.1"/><polygon points="243.93 33.85 226.56 43.44 225.83 48.29 239.78 41.57 243.93 33.85"/><path d="M226.56,17.07c-.63,0-5,.07-6.93.86a58.71,58.71,0,0,0-7.87,4.52c2.72-1.18,8.38-3.41,11.47-3.14.2,0,6-.53,9.49,2.45A12.8,12.8,0,0,0,226.56,17.07Z"/><path class="cls-2" d="M227,10.26c-2.32-.88-8.56,0-8.92,0-.55.12-8.52,2-9.33,9.35l1.37-1.11c.31-.25,7.71-6.21,11.58-6.77a26.21,26.21,0,0,1,7.17,0l.14,0c5,2.43,6.49,6.78,6.46,7.53a6.78,6.78,0,0,1,1.82,1.06.5.5,0,0,1-.71.71l-.21-.17a.53.53,0,0,1,0,.65.51.51,0,0,1-.71,0c-.48-.41-1-.81-1.41-1.25-.17-.17-.34-.35-.5-.53a.35.35,0,0,1-.26-.07.7.7,0,0,0-.1-.08h0l0-.06a1.26,1.26,0,0,1-.38-.5,1.91,1.91,0,0,1-.08-.63.51.51,0,0,1,.49-.5,18.11,18.11,0,0,0-4.6-2.33,51.57,51.57,0,0,1-5.58,0c-2-.14-9.72,2.66-12.53,3.75l-1.91.74a12.34,12.34,0,0,0,.07,2.33A7.73,7.73,0,0,0,210.13,26a2,2,0,0,1-.12-.59,1.52,1.52,0,0,1,.44-1.06,1.54,1.54,0,0,1,1.06-.44l.29,0a4.22,4.22,0,0,0,.84-.24c.26-.12.51-.24.75-.38a1.61,1.61,0,0,1,1.16-.15,1.55,1.55,0,0,1,.9.69A1.52,1.52,0,0,1,215.6,25a1.55,1.55,0,0,1-.69.9,6.88,6.88,0,0,1-3.4,1,1.48,1.48,0,0,1-.94-.35c4.39,5.21,15.16,4.85,16.16,4.8.84-.32,9.15-3.68,10.78-9.72C239.22,15.27,229.06,11,227,10.26Zm-8.9,15.9a.5.5,0,0,1,0-1A.5.5,0,0,1,218.1,26.16Zm16.75-.88a.5.5,0,0,1-.17,0,.64.64,0,0,1-.37-.13.51.51,0,0,1-.24.44.5.5,0,0,1-.68-.18c-.08-.14-.17-.28-.26-.42s-.09-.12-.13-.19l-.07-.09h0l0,0c-.2-.25-.41-.48-.63-.71-.42-.43-.88-.83-1.33-1.23a.51.51,0,0,1,0-.71.39.39,0,0,1,.3-.13c-3.23-2-7.95-1.63-8-1.62C219.34,20,210.75,24,210.66,24l-.29.14,0,0a.5.5,0,0,1-.43,0,.28.28,0,0,1-.13,0,.5.5,0,0,1-.55-.36.62.62,0,0,1,0-.13h0v0a2.42,2.42,0,0,1,.44-1.8c.05-.07.13-.12.19-.19a4.38,4.38,0,0,1,.43-.63,8,8,0,0,1,2.07-1.63.46.46,0,0,1,.68.22.52.52,0,0,1,.3.53c2-1.25,4.47-2.49,5.91-3.2,2.25-.94,7.21-.95,7.42-.95l.15,0c5.33,1.64,8.49,7.35,8.48,8.58A.62.62,0,0,1,234.85,25.28Z"/><polygon points="196.98 18.55 194.2 23.72 194.2 27.96 196.98 36.34 196.98 18.55"/><polygon points="221.28 49.56 221.28 42.86 201.26 36.65 199.7 43.22 221.28 49.56"/><polygon points="253.06 11.13 253.06 45.79 264.48 45.79 264.48 20.86 292.71 45.79 306.6 45.79 306.6 11.13 294.1 11.13 293.91 35.63 264.98 11.13 253.06 11.13"/><path class="cls-1" d="M193.27,55.53a2.65,2.65,0,0,0-1.86,1.4l-.11.25-1.69.26V55.55h-3.06V68.36h3.06V60.19l.08-.12c.12-.19,1.19-1.84,2.56-1.72.77.06,1.4.67,1.88,1.79l0,.19v8h3.26V58.88a4.13,4.13,0,0,0-1.1-3A3.44,3.44,0,0,0,193.27,55.53Z"/><path d="M228.77,14.63h.1l.09,0a21.9,21.9,0,0,1,4.28,2,11.86,11.86,0,0,0-4.59-3.93,23.72,23.72,0,0,0-3.38-.22,25.15,25.15,0,0,0-3.42.23c-2.22.32-5.89,2.71-8.4,4.51,3.25-1.16,8-2.75,9.77-2.63A49.26,49.26,0,0,0,228.77,14.63Z"/><path d="M218.62,1.12l-17,12.46V33.12l22.48,7.2,22-12.41-2.61-17.76Zm19.84,20.8C236.61,28.75,227.38,32.2,227,32.34l-.14,0c-.12,0-.68,0-1.53,0-4.35,0-16.45-.82-17.54-9.84a13.2,13.2,0,0,1-.09-2.05l-.05,0,.05,0c.28-9,10.1-11.17,10.21-11.19h0c.28,0,6.82-1,9.43,0C229.55,10.16,240.41,14.7,238.46,21.92Z"/><polygon points="326.5 45.79 338.46 45.79 338.46 18.82 356 18.82 356 11.13 309.76 11.13 309.76 18.82 326.5 18.82 326.5 45.79"/><rect class="cls-1" x="164.08" y="49.29" width="4.16" height="2.6"/><path class="cls-1" d="M177.7,53.31h0c-3,0-5.34,3.7-5.5,7a9,9,0,0,0,2.65,6.7,4.46,4.46,0,0,0,3.41,1.43c3.09-.27,5.23-4.73,5-8.25C182.93,56.89,180.65,53.32,177.7,53.31Zm.3,12.12h-.19a2.23,2.23,0,0,1-1.51-.67,5.68,5.68,0,0,1-1.55-4.19c.08-2,1.28-4.23,2.95-4.23h0c1.65,0,2.82,2.16,3,4.15C180.8,62.68,179.7,65.25,178,65.43Z"/><path class="cls-2" d="M177.7,57.36h0c-1,0-1.89,1.76-1.95,3.27A4.81,4.81,0,0,0,177,64.05a1.25,1.25,0,0,0,.91.39c1-.1,1.88-2.09,1.76-3.86C179.56,59.06,178.7,57.36,177.7,57.36Z"/><path d="M19.24,26.25h2.88v-3.6H29v-5.4h.84V14.69H18.88V13.61H16.45v1.2H15V13.73H12.79l.08-5H15v1.58l3.84-.16v0L23,10l-.12-1.3h.87V10.2l3.4-.17V8.85H28V9.9l3.28.17V4.25h-.5c-.13,0-13.18-.12-21.37,0-3.09,0-4.81.51-5.76,1.56-1.2,1.32-1,3.37-.77,6.47.11,1.31.23,2.79.28,4.49l.71,0v.08C6.64,36.06.22,42.25.16,42.31L0,42.46V46.9l.59-.11a26.79,26.79,0,0,1,6.23,0,5,5,0,0,0,5.58-4.1V28.41h.68v8.17a.48.48,0,0,0-.07.23c0,.48.4.8,2,1.4a3.14,3.14,0,0,0,1.1.23,1.74,1.74,0,0,0,1-.31,3.52,3.52,0,0,0,1.07-2.91V28.4h1.08ZM4.1,16.25c-.06-1.52-.16-2.87-.26-4.06-.24-2.84-.39-4.71.51-5.71.73-.81,2.29-1.19,5-1.23,7.27-.11,18.39,0,20.85,0V9L29,9V7.85h-2.8V9.07l-1.4.07V7.73h-3l.12,1.34-2.07.08V7.83l-2,.49v.87L16,9.27V7.73H11.89l-.14,8.08H13.6V14.73H14v1.08h3.47v-1.2h.43v1.08H28.8v.56H4.1Zm13.06,19a2.59,2.59,0,0,1-.63,2.08,1.31,1.31,0,0,1-1.21,0,8.3,8.3,0,0,1-1.24-.56V28.4h3.08v6.83Zm1.08-7.82H11.4V42.58A4,4,0,0,1,6.9,45.77c-1.4-.12-2.56-.16-3.5-.16a23.5,23.5,0,0,0-2.4.11V42.87c1-1.1,6.39-7.71,3.92-25.63H28v4.4H21.12v3.6H18.24v2.17Z"/><path d="M53.92,37.45H40.34l-.08-2.39H53.92V27.41H40l.08-2.36H53.92v-8.8H32.28V46.79H53.92Zm-1,8.34H33.28V17.25H52.92v6.8H39.14L39,28.41H52.92v5.65H39.22l.16,4.39H52.92Z"/><path d="M76.56,30.6c1.35-.79,1.89-3.05,2-3.3v-.07L78.28,22c-.26-5.55-3.69-5.75-3.86-5.76H55.92V46.78h7.72l.12-11.73h7.4L71,46.78h7.49V36.9c0-2.24-2.12-3.78-2.88-4.26V30.87A1.92,1.92,0,0,0,76.56,30.6Zm-1.92,2.62.26.14s2.62,1.47,2.62,3.54v8.88H72.05l.12-11.73h-9.4l-.12,11.73H56.92V17.24H74.4c.11,0,2.67.21,2.88,4.8l.24,5.09a4.8,4.8,0,0,1-1.46,2.6.94.94,0,0,1-.77.09l-.64-.19Z"/><path d="M104.08,46.79V36.31a3.92,3.92,0,0,0-3.27-3.93l-.08-1.32c.83-.52,3.11-2.09,3.34-3.87v-6A6.83,6.83,0,0,0,99,16.26H81.47V46.79h7.84V35.06H96V46.79ZM88.32,34.06V45.79H82.48V17.25H98.84a5.81,5.81,0,0,1,4.24,4.12v5.75c-.17,1.27-2.31,2.77-3.11,3.23l-.27.15.16,2.78.44,0a3,3,0,0,1,2.78,3v9.48H97V34H88.32Z"/><path d="M107,46.79h20.68v-8.7L115,38l.09-2.91h12.62V27.41L115,27.29V24.45h12.72v-8.2H107.05V46.79Zm1-29.54h18.68v6.2H114v4.83l12.72.12v5.66H114.14L114,39l12.74.12v6.71H108.05V17.25Z"/><path d="M144.16,26.13l16.77,17L178,26.35V46.8h14V9.3H178.28l-17.05,18-17.36-18H130.44V46.8h13.72V26.13Zm-1,19.66H131.44V10.29h12l17.8,18.48,17.47-18.48H191v35.5H179V24L161,41.72l-17.79-18Z"/><path d="M198.5,43.92l23.78,7V42.12l-21.74-6.75Zm22.78-1.06v6.7L199.7,43.22l1.57-6.58Z"/><path d="M224.57,50l15.94-7.68,5.92-11L225.65,42.8Zm2-6.57,17.38-9.59-4.16,7.72-13.94,6.72Z"/><path d="M218.46,0,200.58,13.08V33.86l23.6,7.56,23-13-2.79-19Zm5.6,40.33-22.48-7.2V13.58l17-12.46,24.85,9,2.61,17.76Z"/><path d="M227.36,9.32c-2.61-1-9.15-.07-9.43,0h0c-.11,0-9.93,2.18-10.21,11.19l-.05,0,.05,0a14.5,14.5,0,0,0,.09,2c1.09,9,13.18,9.84,17.54,9.84.85,0,1.41,0,1.53,0l.14,0c.39-.14,9.62-3.59,11.47-10.42C240.41,14.7,229.55,10.16,227.36,9.32ZM237.5,21.66c-1.63,6-9.94,9.39-10.78,9.72-1,.05-11.77.41-16.16-4.8l-.12-.09a1.36,1.36,0,0,1-.32-.47,7.76,7.76,0,0,1-1.35-3.56,13.24,13.24,0,0,1-.07-2.33l1.91-.74c2.81-1.09,10.54-3.89,12.53-3.75a49,49,0,0,0,5.58,0,18.44,18.44,0,0,1,4.6,2.33h0a.47.47,0,0,1,.38.2.4.4,0,0,1,.17.17l.1.17a3.13,3.13,0,0,0,.48.35c.3.17.61.31.92.45l.08,0c0-.75-1.43-5.1-6.46-7.53l-.14,0a25.75,25.75,0,0,0-7.17,0c-3.87.55-11.27,6.51-11.58,6.77l-1.37,1.11c.82-7.39,8.79-9.23,9.33-9.35.36-.05,6.6-.91,8.92,0C229.06,11,239.22,15.27,237.5,21.66Zm-24-4.4c2.51-1.8,6.18-4.2,8.4-4.51a23.64,23.64,0,0,1,3.42-.23,25.47,25.47,0,0,1,3.38.22,11.87,11.87,0,0,1,4.59,3.93,21.36,21.36,0,0,0-4.28-2l-.09,0h-.1a52.4,52.4,0,0,1-5.55,0C221.5,14.51,216.71,16.09,213.46,17.26Z"/><path d="M226.79,16.09l-.15,0c-.21,0-5.17,0-7.42.95-1.44.71-3.88,1.95-5.91,3.2a.46.46,0,0,1-.13.27,13.48,13.48,0,0,0-1.84,1.94.58.58,0,0,1-.24.2,5,5,0,0,1-.6,1.36.47.47,0,0,1-.17.15l0,0,.29-.14c.09,0,8.68-4.08,12.58-3.73.06,0,4.78-.41,8,1.62a.63.63,0,0,1,.41.13,11.42,11.42,0,0,1,2.6,2.86.53.53,0,0,1,.06.24.64.64,0,0,0,.37.13l.17,0a.6.6,0,0,0,.42-.61C235.28,23.44,232.12,17.73,226.79,16.09Zm-3.56,3.22c-3.09-.27-8.75,2-11.47,3.14a59.83,59.83,0,0,1,7.87-4.52c1.9-.79,6.3-.86,6.93-.86a12.85,12.85,0,0,1,6.16,4.7C229.25,18.78,223.43,19.29,223.23,19.31Z"/><path d="M193.2,28,198,42.52V14.58l-4.78,8.88Zm1-4.32L197,18.56V36.34L194.2,28Z"/><path d="M292.93,33.49,265.49,10.25l-.14-.12H252.07V46.79h13.42V23.08l26.85,23.71h15.27V10.13h-14.5Zm1.17-22.36h12.5V45.79H292.71L264.48,20.86V45.79H253.06V11.13H265l28.94,24.5Z"/><path d="M308.76,19.82H325.5v27h14v-27H357V10.13H308.76Zm1-8.69H356v7.69H338.46v27h-12v-27H309.76Z"/><path class="cls-1" d="M2.65,54h4.4V69.06H13V54h4.49V48.36H2.65Zm1-4.64H16.44V53H12v15H8.05V53H3.65Z"/><path class="cls-1" d="M18.41,52.72h5V48.37h-5Zm1-3.35h3v2.35h-3Z"/><path class="cls-1" d="M18.41,69.06h5V54.43h-5Zm1-13.63h3V68.06h-3Z"/><path class="cls-1" d="M29,63.69a.61.61,0,0,1-.13-.38h8.58V58.67c0-.05-.58-5-6.73-5a5.86,5.86,0,0,0-6.27,5.79V64l0,.16c.06.18,1.53,4.34,4.82,4.34h4l.2,0c.13-.06,3.18-1.41,3.89-3.53l.22-.66h-7A2.41,2.41,0,0,1,29,63.69Zm4.22,3.78H29.47c-2.46.11-3.79-3.06-4-3.59V59.45c0-.2.08-4.79,5.27-4.79s5.72,3.94,5.73,4.06v3.59h-8.4l-.1.37a1.76,1.76,0,0,0,.26,1.62,3.29,3.29,0,0,0,2.38.94h5.55A7.88,7.88,0,0,1,33.25,67.47Z"/><path class="cls-1" d="M49.94,54.21a4.22,4.22,0,0,0-3.89-.54,3.68,3.68,0,0,0-2.44,1.72h0V53.67H38.54V68.48H43.6V59.61c.29-.41,1-1.2,1.55-1.14s.78.6,1,1.09v8.92h5.26V58A5,5,0,0,0,49.94,54.21ZM50.41,58v9.47H47.15v-8l0-.19c-.48-1.12-1.11-1.73-1.88-1.79-1.35-.11-2.44,1.53-2.56,1.72l-.08.12v8.17H39.53V54.67h3.06v1.89l1.69-.26.11-.25a2.65,2.65,0,0,1,1.86-1.4,3.36,3.36,0,0,1,3,.34A4.08,4.08,0,0,1,50.41,58Z"/><path class="cls-1" d="M61.73,59.36a3.36,3.36,0,0,0-2.87-2.86c-1.91-.11-2.76,1.82-2.93,2.87l-.1.58h6ZM57.07,59c.22-.63.72-1.52,1.72-1.45A2.12,2.12,0,0,1,60.55,59Z"/><path class="cls-1" d="M73.64,68.47h4.88V48.37H73.64Zm1-19.1h2.88v18.1H74.64Z"/><path class="cls-1" d="M90,53.52l-.12-.07h-5a4.6,4.6,0,0,0-3.43,1.68,4.31,4.31,0,0,0-.69,3.19l.08.4h4.33l.06-.43A1.63,1.63,0,0,1,86,57.2a2.58,2.58,0,0,1,2.14.12v1.19c-.24.1-.78.24-1.23.36-1.89.49-5,1.31-6.13,3.59-1.31,2.75.58,5.07,1.76,5.92l.13.09h3.89a.94.94,0,0,0,.37.07,1,1,0,0,0,.29,0,2.87,2.87,0,0,0,1.3-1v1h4.1V57C92.58,55.05,90.12,53.58,90,53.52Zm1.57,13.95h-2.1V64l-.93,1.64c-.62,1.08-1.4,1.92-1.66,1.89l-.12-.07H83c-.52-.42-2.45-2.2-1.32-4.58.88-1.85,3.65-2.57,5.48-3,1.32-.34,2-.51,2-1.13V56.66l-.3-.13a3.69,3.69,0,0,0-3.33-.21,2.54,2.54,0,0,0-1.13,1.39H81.69a3.14,3.14,0,0,1,.56-2,3.62,3.62,0,0,1,2.67-1.27h4.7c.64.41,2,1.47,2,2.54V67.47Z"/><path class="cls-1" d="M84.1,64.39a1.77,1.77,0,0,0,.73,1.44,1.72,1.72,0,0,0,.94.26,1.9,1.9,0,0,0,.58-.08,2.16,2.16,0,0,0,1.39-.58,2.61,2.61,0,0,0,.71-2V60.61l-.68.26C87.38,61,83.94,62.4,84.1,64.39Zm3.35-.92a1.67,1.67,0,0,1-.4,1.24,1.15,1.15,0,0,1-.76.31H86.2l-.09,0a1,1,0,0,1-.73,0,.89.89,0,0,1-.29-.68c-.06-.8,1.3-1.68,2.36-2.2v1.35Z"/><path class="cls-1" d="M108.05,58.76c-.39-.12-.74-.21-1.06-.28-.68-.16-1-.25-1.14-.51a1.31,1.31,0,0,1,.18-1,.85.85,0,0,1,.46-.45c.08,0,.25.17.41.33a4.26,4.26,0,0,0,1,.81,4.63,4.63,0,0,0,3.89.16,1.5,1.5,0,0,0,1-1h0a1.51,1.51,0,0,0-.47-1.28,7.56,7.56,0,0,0-5.65-2.2,5.18,5.18,0,0,0-3.53,1.47c-1.55,1.61-2,4.38-1,5.8a2.48,2.48,0,0,0,1.64.9,11.72,11.72,0,0,1,2.54.93c1.22.61,2,1,2,1.52a1.37,1.37,0,0,1-.4.93,1,1,0,0,1-.57.32c-.18,0-.36-.26-.62-.69A3.19,3.19,0,0,0,105.09,63a3.13,3.13,0,0,0-2.35.2,2.19,2.19,0,0,0-1.15,1.2c-.52,1.61,1.7,3.83,4,4.67a6.36,6.36,0,0,0,2.28.46,4.88,4.88,0,0,0,2.11-.47A5.7,5.7,0,0,0,113.07,63C112.4,60.33,109.06,59.08,108.05,58.76Zm1.46,9.35a4.57,4.57,0,0,1-3.61,0c-2-.75-3.63-2.6-3.36-3.43a1.19,1.19,0,0,1,.64-.61,2.3,2.3,0,0,1,1-.24,1.69,1.69,0,0,1,.56.09A2.32,2.32,0,0,1,105.86,65c.33.54.7,1.15,1.44,1.17a1.8,1.8,0,0,0,1.33-.64,2.31,2.31,0,0,0,.67-1.7c-.1-1.1-1.24-1.67-2.56-2.32a12.5,12.5,0,0,0-2.74-1c-.65-.16-.86-.23-1.08-.53-.76-1-.33-3.27.87-4.52a4.18,4.18,0,0,1,2.87-1.17A6.67,6.67,0,0,1,111.32,56a1.35,1.35,0,0,1,.42.6,1.18,1.18,0,0,1-.59.34,3.7,3.7,0,0,1-2.79-.19,3.45,3.45,0,0,1-.76-.63,1.45,1.45,0,0,0-1.28-.63,1.75,1.75,0,0,0-1.18.94,2.34,2.34,0,0,0-.24,1.9c.3.75,1,.93,1.84,1.11.3.07.63.15,1,.26.63.2,3.79,1.31,4.35,3.49A4.65,4.65,0,0,1,109.51,68.11Z"/><path class="cls-1" d="M120.5,53.33h0c-3.61,0-6.32,3.85-6.5,7.31a8.88,8.88,0,0,0,2.67,6.59,5.93,5.93,0,0,0,4.1,1.84h.37A5.58,5.58,0,0,0,125,66.93a9.05,9.05,0,0,0,2-6.42C126.69,57,124,53.33,120.5,53.33Zm3.69,13a4.67,4.67,0,0,1-3.13,1.78,4.84,4.84,0,0,1-3.7-1.55A8,8,0,0,1,115,60.69c.16-3,2.45-6.37,5.5-6.37h0c3.22,0,5.27,3.64,5.5,6.26A8,8,0,0,1,124.19,66.28Z"/><path class="cls-1" d="M128.16,68.54h5.2V48.29h-5.2V68.54Zm1-19.25h3.2V67.54h-3.2Z"/><path class="cls-1" d="M142.32,63.33a1.53,1.53,0,0,1-1.58.58l-.39-.06c-.07-.12-.17-.29-.27-.5V53.3l-5.08.16V65c0,.15.67,3.58,3.1,3.58h0l3.12,0,.11-.06a8.47,8.47,0,0,0,1.42-1v1.11h4.84V53.44h-5.45Zm.89-8.88h3.43V67.54H143.8v-3.4l-.94,1.69A5.4,5.4,0,0,1,141,67.49l-2.87.05c-1.61,0-2.12-2.67-2.13-2.67V54.43l3.08-.1v9.25l0,.1c.48,1,.9,1.56,1.45,1.48a.61.61,0,0,0,.38-.22,2.52,2.52,0,0,0,2.31-1.25l0-.11Z"/><path class="cls-1" d="M159.17,61.51a2.94,2.94,0,0,0-2.41,1,1.94,1.94,0,0,0-.38,1.39,3,3,0,0,1,0,.34,1.19,1.19,0,0,1-.84,0A3.67,3.67,0,0,1,153.18,62a3.8,3.8,0,0,1,.65-3.13,2,2,0,0,1,1.22-.91c.17,0,.37.14.7.51a3.38,3.38,0,0,0,1.75,1.16,4.09,4.09,0,0,0,3.12-.65,1.77,1.77,0,0,0,.83-1.22c.09-.89-.83-1.75-1.38-2.18-1.64-1.28-4.48-2.29-6.84-1.46a6.79,6.79,0,0,0-3.86,4.08,8.84,8.84,0,0,0,.19,7.18,7,7,0,0,0,5.31,3.72s.24,0,.57,0a6.35,6.35,0,0,0,5-2.23c.21-.27,2.05-2.71.89-4.32A2.79,2.79,0,0,0,159.17,61.51Zm.51,4.73a5.62,5.62,0,0,1-4.7,1.82,6,6,0,0,1-4.53-3.19,7.89,7.89,0,0,1-.14-6.35,5.79,5.79,0,0,1,3.26-3.5,4.79,4.79,0,0,1,1.55-.25,7.48,7.48,0,0,1,4.34,1.55c.77.6,1,1.11,1,1.3a.94.94,0,0,1-.42.51,3.1,3.1,0,0,1-2.31.49,2.39,2.39,0,0,1-1.24-.86,2,2,0,0,0-1.46-.83,2.79,2.79,0,0,0-2,1.32,4.71,4.71,0,0,0-.8,4,4.65,4.65,0,0,0,3,2.89A1.88,1.88,0,0,0,157,65a1.31,1.31,0,0,0,.39-1.13,1,1,0,0,1,.16-.74,2,2,0,0,1,1.61-.64,1.82,1.82,0,0,1,1.41.61C161.14,64,160.24,65.53,159.68,66.24Z"/><path class="cls-1" d="M163.08,52.89h6.16v-4.6h-6.16Zm1-3.6h4.16v2.6h-4.16Z"/><path class="cls-1" d="M163.12,54.47c.14.9,0,8.74,0,13.56v.51h6.17V53.77H162.7Zm1,.3h4.11V67.54h-4.15C164.24,59.05,164.2,56,164.13,54.77Z"/><path class="cls-1" d="M177.7,52.31h0c-3.61,0-6.32,4.2-6.5,8a10.12,10.12,0,0,0,3,7.47A5.59,5.59,0,0,0,178,69.48l.37,0c3.7-.32,6.19-5.28,5.85-9.32C183.89,56.38,181.32,52.32,177.7,52.31Zm.55,16.16A4.46,4.46,0,0,1,174.84,67a9.12,9.12,0,0,1-2.65-6.7c.16-3.32,2.46-7,5.5-7h0c2.95,0,5.23,3.58,5.5,6.91C183.49,63.74,181.34,68.2,178.25,68.47Z"/><path class="cls-2" d="M120.51,57.05h0c-1.34,0-2.24,1.93-2.29,3.71a5.28,5.28,0,0,0,1.31,3.79,1.59,1.59,0,0,0,1.06.46h.16c1.34-.17,2.16-2.4,2-4.31C122.72,59.18,122,57.05,120.51,57.05Zm.11,7a.59.59,0,0,1-.43-.19,4.34,4.34,0,0,1-1-3c0-1.36.7-2.75,1.29-2.75h0c.58,0,1.22,1.34,1.3,2.7C121.89,62.34,121.21,63.93,120.62,64Z"/><path class="cls-1" d="M177.7,56.36h0c-1.67,0-2.87,2.19-2.95,4.23a5.72,5.72,0,0,0,1.55,4.19,2.23,2.23,0,0,0,1.51.67H178c1.69-.18,2.8-2.75,2.65-4.92C180.52,58.51,179.36,56.36,177.7,56.36Zm.2,8.08a1.22,1.22,0,0,1-.91-.39,4.79,4.79,0,0,1-1.23-3.42c.06-1.51.92-3.27,2-3.27h0c1,0,1.85,1.7,1.95,3.22C179.78,62.35,178.87,64.33,177.9,64.44Z"/><path class="cls-1" d="M173.51,51.57h2.9L180,48.29h-3.52Zm3.89-2.28L176,50.57h-.28l1.14-1.28Z"/><path class="cls-1" d="M197,55.1a4.22,4.22,0,0,0-3.89-.54,3.68,3.68,0,0,0-2.44,1.72h0V54.56h-5.06V69.37h5.06V60.5c.32-.46,1-1.18,1.55-1.14s.78.59,1,1.09v8.92h5.26V58.93A5,5,0,0,0,197,55.1Zm.47,3.79v9.47h-3.26v-8l0-.19c-.48-1.12-1.11-1.73-1.88-1.79-1.37-.12-2.44,1.53-2.56,1.72l-.08.12v8.17h-3.06V55.56h3.06v1.89l1.69-.26.11-.25a2.65,2.65,0,0,1,1.86-1.4,3.36,3.36,0,0,1,3.05.34A4.08,4.08,0,0,1,197.42,58.89Z"/><path class="cls-1" d="M33.87,59.56A3.36,3.36,0,0,0,31,56.7c-1.91-.12-2.76,1.82-2.93,2.87l-.1.58h6Zm-4.65-.41c.22-.63.72-1.52,1.72-1.45a2.12,2.12,0,0,1,1.76,1.45Z"/><path class="cls-1" d="M56.88,63.83a.61.61,0,0,1-.13-.38h8.58V58.81c0-.05-.58-5-6.73-5a5.86,5.86,0,0,0-6.27,5.79v4.52l0,.16c.06.18,1.53,4.34,4.82,4.34h4l.2,0c.13-.06,3.18-1.41,3.89-3.53l.22-.66H58.48A2.41,2.41,0,0,1,56.88,63.83Zm4.23,3.78H57.33c-2.47.09-3.79-3.06-4-3.59V59.59c0-.2.06-4.79,5.27-4.79s5.72,3.94,5.73,4.06v3.59h-8.4l-.1.37a1.76,1.76,0,0,0,.26,1.62,3.29,3.29,0,0,0,2.38.94H64A8,8,0,0,1,61.11,67.61Z"/><polyline class="cls-2" points="63.48 25.24 63.48 29.38 71.22 29.38 71.22 25.24"/><polyline class="cls-2" points="88.91 25.24 88.91 29.38 96.65 29.38 96.65 25.24"/></g></g></svg>