<?xml version="1.0" encoding="utf-8"?>
<!-- Generator: Adobe Illustrator 24.0.2, SVG Export Plug-In . SVG Version: 6.00 Build 0)  -->
<svg version="1.1" id="Capa_1" xmlns="http://www.w3.org/2000/svg" xmlns:xlink="http://www.w3.org/1999/xlink" x="0px" y="0px"
	 viewBox="0 0 612 792" style="enable-background:new 0 0 612 792;" xml:space="preserve">
<style type="text/css">
	.st0{fill:#E30613;}
	.st1{fill:none;}
</style>
<path class="st0" d="M235,434.3c-0.4-0.1-0.7-0.2-1-0.3c-0.8-0.2-1.5-0.4-1.8-1.1c-0.3-0.6-0.1-1.4,0.2-1.9c0.3-0.5,0.7-0.9,1.2-0.9
	c0.6-0.1,1,0.3,1.3,0.6c0.2,0.2,0.4,0.5,0.8,0.6c0.9,0.5,2.1,0.4,2.8,0.2c0.4-0.1,0.6-0.3,0.6-0.3c0-0.1-0.1-0.3-0.4-0.6
	c-0.9-0.9-2.8-1.8-4.7-1.7c-0.6,0-1.9,0.1-2.9,1.2c-1.2,1.3-1.6,3.5-0.9,4.5c0.2,0.3,0.4,0.4,1.1,0.5c0.6,0.2,1.5,0.4,2.7,1
	c1.3,0.7,2.5,1.2,2.6,2.3c0.1,0.6-0.2,1.2-0.7,1.7c-0.4,0.4-0.8,0.6-1.3,0.6c-0.7,0-1.1-0.6-1.4-1.2c-0.3-0.5-0.6-1-1.1-1.1
	c-0.2-0.1-0.4-0.1-0.6-0.1c-0.3,0-0.7,0.1-1,0.2c-0.3,0.2-0.6,0.4-0.6,0.6c-0.3,0.8,1.3,2.7,3.4,3.4c0.5,0.2,2.1,0.8,3.6,0
	c1.8-0.9,3-3.2,2.6-4.9C238.8,435.6,235.6,434.5,235,434.3z"/>
<path class="st0" d="M216.8,429.1h-4.7c-1.2,0.1-2.1,0.5-2.7,1.3c-0.5,0.7-0.6,1.5-0.6,2h2.6c0.1-0.4,0.5-1,1.1-1.4
	c0.9-0.5,2-0.4,3.3,0.2l0.3,0.1v2c0,0.6-0.7,0.8-2,1.1c-1.8,0.5-4.6,1.2-5.5,3c-1.1,2.4,0.8,4.2,1.3,4.6h3.8l0.1,0.1
	c0.3,0,1-0.8,1.7-1.9l0.9-1.6v3.5h2.1v-10.5C218.8,430.5,217.5,429.5,216.8,429.1z M215.7,438.1c0,0.9-0.2,1.5-0.7,2
	c-0.5,0.5-1.1,0.6-1.4,0.6c-0.1,0-0.3,0.1-0.6,0.1c-0.3,0-0.6-0.1-0.9-0.3c-0.3-0.2-0.7-0.6-0.7-1.4c-0.1-2,3.3-3.4,3.7-3.5l0.7-0.3
	L215.7,438.1L215.7,438.1z"/>
<path d="M224.2,420.4h6.1v-9.5c0-0.1-0.1-2.8-2.8-3l-0.4,0l-0.2-2.8l0.3-0.1c0.8-0.5,2.9-2,3.1-3.2V396c-0.1-0.4-1-3.4-4.2-4.1
	h-16.4v28.5h5.8v-11.7h8.7V420.4z"/>
<path class="st1" d="M212.3,438.9c0,0.3,0.1,0.6,0.3,0.7c0.2,0.2,0.6,0.1,0.7,0l0.1,0h0.1l0,0c0,0,0.4,0,0.8-0.3
	c0.3-0.3,0.4-0.7,0.4-1.2v-1.4C213.6,437.3,212.3,438.1,212.3,438.9z"/>
<path d="M203.3,404.4c0.8-0.5,1.3-2,1.5-2.6l-0.2-5.1c-0.2-4.6-2.8-4.8-2.9-4.8h-17.5v28.5h5.7l0.1-11.7h9.4l-0.1,11.7h5.5v-8.9
	c0-2.1-2.6-3.5-2.6-3.5l-0.3-0.1v-3.6l0.6,0.2C202.8,404.5,203,404.5,203.3,404.4z"/>
<path class="st0" d="M295.5,442.2v-12.8h-4.1c0.1,1.2,0.1,4.3,0,12.8H295.5z"/>
<rect x="256.4" y="423.9" class="st0" width="3.2" height="18.3"/>
<path class="st1" d="M247.7,432.7L247.7,432.7c-0.6,0-1.3,1.4-1.3,2.8c0,1.3,0.5,2.5,1,3c0.1,0.1,0.3,0.2,0.4,0.2
	c0.6-0.1,1.3-1.7,1.2-3.3C248.9,434,248.3,432.7,247.7,432.7z"/>
<path class="st0" d="M286.4,437.1c-0.7,0-1.3,0.2-1.6,0.6c-0.2,0.2-0.2,0.4-0.2,0.7c0,0.3,0,0.8-0.4,1.1c-0.4,0.3-1,0.4-1.8,0.1
	c-1.2-0.4-2.5-1.4-3-2.9c-0.5-1.5,0.1-3,0.8-4c0.6-0.8,1.3-1.3,2-1.3c0.7,0,1.1,0.4,1.5,0.8c0.3,0.4,0.7,0.7,1.2,0.9
	c0.8,0.2,1.8-0.1,2.3-0.5c0.3-0.2,0.4-0.4,0.4-0.5c0-0.2-0.2-0.7-1-1.3c-1.1-0.8-2.7-1.5-4.3-1.5c-0.5,0-1,0.1-1.5,0.3
	c-1.4,0.5-2.6,1.8-3.3,3.5c-0.8,2.1-0.8,4.6,0.1,6.4c0.7,1.4,2.3,2.9,4.5,3.2c0,0,3,0.3,4.7-1.8c0.6-0.7,1.5-2.3,0.9-3.1
	C287.5,437.4,287,437.1,286.4,437.1z"/>
<path class="st0" d="M268.2,439.6c-0.1,0.1-0.2,0.2-0.4,0.2c-0.5,0.1-1-0.5-1.5-1.5l0-0.1v-9.3l-3.1,0.1v10.4c0,0,0.5,2.7,2.1,2.7
	l2.9,0c0.3-0.2,1.4-0.9,1.9-1.7l0.9-1.7v3.4h2.8v-13.1h-3.4l0.1,9.1l0,0.1C270.3,438.8,269.5,439.6,268.2,439.6z"/>
<path class="st0" d="M247.7,429L247.7,429c-3.1,0-5.3,3.4-5.5,6.4c-0.1,2,0.8,4.3,2.4,5.8c1.1,1.1,2.4,1.6,3.7,1.5
	c1.4-0.1,2.5-1,3.1-1.8c1.3-1.5,2-3.7,1.8-5.7C253,432.6,250.9,429,247.7,429z M248,439.6c-0.1,0-0.1,0-0.2,0
	c-0.3,0-0.7-0.1-1.1-0.5c-0.8-0.7-1.4-2.3-1.3-3.8c0.1-1.8,0.9-3.7,2.3-3.7l0,0c1.4,0,2.2,2.1,2.3,3.6
	C250.1,437.2,249.3,439.5,248,439.6z"/>
<polygon points="253.9,413.7 241.2,413.6 241.4,408.7 253.9,408.7 253.9,403 241.2,402.9 241.2,398.1 253.9,398.1 253.9,391.9 
	235.3,391.9 235.3,420.4 253.9,420.4 "/>
<path class="st0" d="M183.3,439.1c-0.2-0.3-0.5-0.8-0.3-1.6l0.1-0.4h8.4v-3.6c0-0.1-0.5-4.1-5.7-4.1c-5.2,0-5.3,4.6-5.3,4.8v4.4
	c0.2,0.5,1.5,3.7,4,3.6h3.8c0.4-0.2,2.1-1,2.9-2.2h-5.6C185.5,440,184,440,183.3,439.1z M183.1,434c0.2-1,1-3,2.9-2.9
	c1.9,0.1,2.7,1.9,2.9,2.9l0.1,0.6h-6L183.1,434z"/>
<polygon class="st0" points="135.3,442.7 139.2,442.7 139.2,427.6 143.7,427.6 143.7,424 130.9,424 130.9,427.6 135.3,427.6 "/>
<polygon points="166.4,408.7 180.1,408.7 180.1,403 166.2,403 166.4,398.7 180.1,398.7 180.1,391.9 160.5,391.9 160.5,420.4 
	180.1,420.4 180.1,413.1 166.6,413.1 "/>
<path d="M156,390.9v-0.6h-10.9v-1.1h-0.4v1.2h-3.5v-1.1h-0.4v1.1H139l0.1-8.1h4.1v1.5l1.9-0.1v-0.9l2-0.5v1.3l2.1-0.1l-0.1-1.3h3
	v1.4l1.4-0.1v-1.2h2.8v1.1l1.3,0.1v-3.8c-2.5,0-13.6-0.1-20.9,0c-2.8,0-4.3,0.4-5,1.2c-0.9,1-0.8,2.9-0.5,5.7
	c0.1,1.2,0.2,2.5,0.3,4.1h24.4L156,390.9L156,390.9z"/>
<path d="M141.3,411.4c0.2,0.1,0.5,0.3,1.2,0.6c0.5,0.2,0.9,0.2,1.2,0c0.4-0.3,0.6-1,0.6-2.1V403h-3.1L141.3,411.4L141.3,411.4z"/>
<polygon class="st0" points="303.2,425.2 304.6,423.9 304.1,423.9 303,425.2 "/>
<path class="st1" d="M186,432.1c-1-0.1-1.5,0.8-1.7,1.5h3.5C187.5,433,187,432.2,186,432.1z"/>
<polygon points="306.2,398.6 306.2,420.4 318.3,420.4 318.3,384.9 305.9,384.9 288.5,403.4 270.7,384.9 258.7,384.9 258.7,420.4 
	270.4,420.4 270.4,398.3 288.2,416.3 "/>
<path class="st0" d="M148.3,396.3h6.8v-4.4h-23c2.5,17.9-2.9,24.5-3.9,25.6v2.9c0.5,0,1.3-0.1,2.4-0.1c0.9,0,2.1,0,3.5,0.2
	c3.8,0.3,4.5-3,4.5-3.2l0-15.2h6.8v-2.2h2.9L148.3,396.3L148.3,396.3z"/>
<path class="st0" d="M173.5,429.3c-0.1,0-1.3,0.3-1.9,1.4l-0.1,0.3l-1.7,0.3v-1.9h-3.1v12.8h3.1v-8.2l0.1-0.1
	c0.1-0.2,1.2-1.8,2.6-1.7c0.8,0.1,1.4,0.7,1.9,1.8l0,0.2v8h3.3v-9.5c0,0,0.1-2.1-1.1-3C175.8,429,174.8,428.9,173.5,429.3z"/>
<path class="st1" d="M158.2,432.3c-1-0.1-1.5,0.8-1.7,1.5h3.5C159.7,433.2,159.2,432.4,158.2,432.3z"/>
<path class="st0" d="M155.5,438.9c-0.2-0.3-0.5-0.8-0.3-1.6l0.1-0.4h8.4v-3.6c0-0.1-0.5-4.1-5.7-4.1c-5.2,0-5.3,4.6-5.3,4.8v4.4
	c0.2,0.5,1.5,3.7,4,3.6h3.8c0.4-0.2,2.1-1,2.9-2.2h-5.6C157.7,439.9,156.2,439.8,155.5,438.9z M155.3,434.2c0.2-1,1-3,2.9-2.9
	c1.9,0.1,2.7,1.9,2.9,2.9l0.1,0.6h-6L155.3,434.2z"/>
<rect x="146.6" y="424" class="st0" width="3" height="2.4"/>
<rect x="146.6" y="430" class="st0" width="3" height="12.6"/>
<rect x="201.9" y="424" class="st0" width="2.9" height="18.1"/>
<polygon points="371.1,408.5 353.8,418.1 353,422.9 367,416.2 "/>
<path d="M353.8,391.7c-0.6,0-5,0.1-6.9,0.9c-3,1.5-6.3,3.3-7.9,4.5c2.7-1.2,8.4-3.4,11.5-3.1c0.2,0,6-0.5,9.5,2.5
	C358.6,394.6,356.5,392.6,353.8,391.7z"/>
<path class="st1" d="M354.2,384.9c-2.3-0.9-8.6,0-8.9,0c-0.5,0.1-8.5,2-9.3,9.4l1.4-1.1c0.3-0.3,7.7-6.2,11.6-6.8c3.8-0.5,7,0,7.2,0
	l0.1,0c5,2.4,6.5,6.8,6.5,7.5c0.6,0.3,1.3,0.6,1.8,1.1c0.2,0.2,0.2,0.5,0,0.7c-0.2,0.2-0.5,0.2-0.7,0c-0.1-0.1-0.1-0.1-0.2-0.2
	c0.1,0.2,0.1,0.5,0,0.6c-0.2,0.2-0.5,0.2-0.7,0c-0.5-0.4-1-0.8-1.4-1.3c-0.2-0.2-0.3-0.4-0.5-0.5c-0.1,0-0.2,0-0.3-0.1
	c0,0-0.1-0.1-0.1-0.1c0,0,0,0,0,0c0,0,0,0,0-0.1c-0.2-0.1-0.3-0.3-0.4-0.5c-0.1-0.2-0.1-0.4-0.1-0.6c0-0.3,0.2-0.5,0.5-0.5
	c-1.2-0.9-3.2-1.8-4.6-2.3c-0.6,0-3.3,0.2-5.6,0c-2-0.1-9.7,2.7-12.5,3.8l-1.9,0.7c0,0.7,0,1.5,0.1,2.3c0.2,1.4,0.6,2.6,1.4,3.6
	c-0.1-0.2-0.1-0.4-0.1-0.6c0-0.4,0.2-0.8,0.4-1.1c0.3-0.3,0.7-0.4,1.1-0.4c0.1,0,0.2,0,0.3,0c0.3,0,0.6-0.1,0.8-0.2
	c0.3-0.1,0.5-0.2,0.8-0.4c0.4-0.2,0.8-0.2,1.2-0.1c0.4,0.1,0.7,0.4,0.9,0.7s0.3,0.8,0.1,1.2c-0.1,0.4-0.4,0.7-0.7,0.9
	c-1,0.6-2.2,1-3.4,1c-0.4,0-0.7-0.1-0.9-0.4c4.4,5.2,15.2,4.9,16.2,4.8c0.8-0.3,9.1-3.7,10.8-9.7
	C366.4,389.9,356.3,385.7,354.2,384.9z M345.3,400.8c-0.6,0-0.6-1,0-1C346,399.8,346,400.8,345.3,400.8z M362.1,399.9
	c-0.1,0-0.1,0-0.2,0c-0.1,0-0.2,0-0.4-0.1c0,0.2-0.1,0.3-0.2,0.4c-0.2,0.1-0.6,0-0.7-0.2c-0.1-0.1-0.2-0.3-0.3-0.4
	c0-0.1-0.1-0.1-0.1-0.2c0,0,0-0.1-0.1-0.1c0,0,0,0,0,0c0,0,0,0,0,0c-0.2-0.3-0.4-0.5-0.6-0.7c-0.4-0.4-0.9-0.8-1.3-1.2
	c-0.2-0.2-0.2-0.5,0-0.7c0.1-0.1,0.2-0.1,0.3-0.1c-3.2-2-8-1.6-8-1.6c-3.9-0.3-12.5,3.7-12.6,3.7l-0.3,0.1l0,0
	c-0.1,0.1-0.3,0.1-0.4,0c0,0-0.1,0-0.1,0c-0.2,0-0.5-0.1-0.5-0.4c0,0,0-0.1,0-0.1c0,0,0,0,0,0c0,0,0,0,0,0c-0.1-0.6,0-1.3,0.4-1.8
	c0-0.1,0.1-0.1,0.2-0.2c0.1-0.2,0.3-0.4,0.4-0.6c0.6-0.7,1.3-1.2,2.1-1.6c0.3-0.2,0.6,0,0.7,0.2c0.2,0.1,0.3,0.3,0.3,0.5
	c2-1.3,4.5-2.5,5.9-3.2c2.3-0.9,7.2-1,7.4-1l0.1,0c5.3,1.6,8.5,7.4,8.5,8.6C362.5,399.6,362.3,399.8,362.1,399.9z"/>
<polygon points="324.2,393.2 321.4,398.3 321.4,402.6 324.2,411 "/>
<polygon points="348.5,424.2 348.5,417.5 328.5,411.3 326.9,417.8 "/>
<polygon points="380.3,385.8 380.3,420.4 391.7,420.4 391.7,395.5 419.9,420.4 433.8,420.4 433.8,385.8 421.3,385.8 421.1,410.3 
	392.2,385.8 "/>
<path class="st0" d="M320.5,430.1c-0.1,0-1.3,0.3-1.9,1.4l-0.1,0.3l-1.7,0.3v-1.9h-3.1V443h3.1v-8.2l0.1-0.1
	c0.1-0.2,1.2-1.8,2.6-1.7c0.8,0.1,1.4,0.7,1.9,1.8l0,0.2v8h3.3v-9.5c0,0,0.1-2.1-1.1-3C322.9,429.9,321.8,429.8,320.5,430.1z"/>
<path d="M356,389.3l0.1,0l0.1,0c0.4,0.1,2.6,0.9,4.3,2c-0.9-1.3-2.4-2.8-4.6-3.9c-0.3,0-1.6-0.2-3.4-0.2c-1,0-2.2,0.1-3.4,0.2
	c-2.2,0.3-5.9,2.7-8.4,4.5c3.3-1.2,8-2.8,9.8-2.6C352.9,389.4,356,389.3,356,389.3z"/>
<path d="M345.8,375.7l-17,12.5v19.5l22.5,7.2l22-12.4l-2.6-17.8L345.8,375.7z M365.7,396.5c-1.9,6.8-11.1,10.3-11.5,10.4l-0.1,0
	c-0.1,0-0.7,0-1.5,0c-4.4,0-16.5-0.8-17.5-9.8c-0.1-0.7-0.1-1.4-0.1-2l0,0l0,0c0.3-9,10.1-11.2,10.2-11.2l0,0c0.3,0,6.8-1,9.4,0
	C356.8,384.8,367.6,389.3,365.7,396.5z"/>
<polygon points="453.7,420.4 465.7,420.4 465.7,393.4 483.2,393.4 483.2,385.8 437,385.8 437,393.4 453.7,393.4 "/>
<rect x="291.3" y="423.9" class="st0" width="4.2" height="2.6"/>
<path class="st0" d="M304.9,427.9L304.9,427.9c-3,0-5.3,3.7-5.5,7c-0.1,2.4,0.9,5,2.6,6.7c1.1,1,2.3,1.5,3.4,1.4
	c3.1-0.3,5.2-4.7,5-8.3C310.1,431.5,307.9,427.9,304.9,427.9z M305.2,440c-0.1,0-0.1,0-0.2,0c-0.5,0-1-0.2-1.5-0.7
	c-1-0.9-1.6-2.6-1.5-4.2c0.1-2,1.3-4.2,3-4.2l0,0c1.6,0,2.8,2.2,3,4.1C308,437.3,306.9,439.9,305.2,440z"/>
<path class="st1" d="M304.9,432L304.9,432c-1,0-1.9,1.8-2,3.3c0,1.3,0.5,2.7,1.2,3.4c0.2,0.2,0.6,0.4,0.9,0.4c1-0.1,1.9-2.1,1.8-3.9
	C306.8,433.7,305.9,432,304.9,432z"/>
<path d="M146.5,400.9h2.9v-3.6h6.8v-5.4h0.8v-2.6h-10.9v-1.1h-2.4v1.2h-1.5v-1.1H140l0.1-5h2.1v1.6l3.8-0.2v0l4.2-0.2l-0.1-1.3h0.9
	v1.5l3.4-0.2v-1.2h0.8v1l3.3,0.2v-5.8H158c-0.1,0-13.2-0.1-21.4,0c-3.1,0-4.8,0.5-5.8,1.6c-1.2,1.3-1,3.4-0.8,6.5
	c0.1,1.3,0.2,2.8,0.3,4.5l0.7,0l0,0.1c2.8,19.2-3.6,25.4-3.7,25.5l-0.2,0.1v4.4l0.6-0.1c0,0,2-0.4,6.2,0c4.7,0.4,5.6-4,5.6-4.1V403
	h0.7v8.2c0,0.1-0.1,0.1-0.1,0.2c0,0.5,0.4,0.8,1.9,1.4c0.4,0.1,0.8,0.2,1.1,0.2c0.4,0,0.7-0.1,1-0.3c0.9-0.6,1.1-1.9,1.1-2.9V403
	h1.1V400.9z M131.3,390.9c-0.1-1.5-0.2-2.9-0.3-4.1c-0.2-2.8-0.4-4.7,0.5-5.7c0.7-0.8,2.3-1.2,5-1.2c7.3-0.1,18.4,0,20.9,0v3.8
	l-1.3-0.1v-1.1h-2.8v1.2l-1.4,0.1v-1.4h-3l0.1,1.3l-2.1,0.1v-1.3l-2,0.5v0.9l-1.9,0.1v-1.5h-4.1l-0.1,8.1h1.9v-1.1h0.4v1.1h3.5v-1.2
	h0.4v1.1H156v0.6h-0.3L131.3,390.9L131.3,390.9z M144.4,409.9c0,1-0.2,1.8-0.6,2.1c-0.3,0.2-0.7,0.2-1.2,0c-0.7-0.3-1.1-0.5-1.2-0.6
	V403h3.1L144.4,409.9L144.4,409.9z M145.5,402h-6.8l0,15.2c0,0.1-0.7,3.5-4.5,3.2c-1.4-0.1-2.6-0.2-3.5-0.2c-1.1,0-1.9,0.1-2.4,0.1
	v-2.9c1-1.1,6.4-7.7,3.9-25.6h23v4.4h-6.8v3.6h-2.9L145.5,402L145.5,402z"/>
<path d="M181.1,412.1h-13.6l-0.1-2.4h13.7V402h-13.9l0.1-2.4h13.8v-8.8h-21.6v30.5h21.6V412.1z M180.1,420.4h-19.6v-28.5h19.6v6.8
	h-13.8l-0.2,4.4h13.9v5.6h-13.7l0.2,4.4h13.5V420.4z"/>
<path d="M203.8,405.2c1.4-0.8,1.9-3,1.9-3.3l0-0.1l-0.2-5.2c-0.3-5.5-3.7-5.8-3.9-5.8h-18.5v30.5h7.7l0.1-11.7h7.4l-0.1,11.7h7.5
	v-9.9c0-2.2-2.1-3.8-2.9-4.3v-1.8C203.2,405.5,203.5,405.4,203.8,405.2z M201.9,407.8l0.3,0.1c0,0,2.6,1.5,2.6,3.5v8.9h-5.5
	l0.1-11.7H190l-0.1,11.7h-5.7v-28.5h17.5c0.1,0,2.7,0.2,2.9,4.8l0.2,5.1c-0.1,0.6-0.7,2.1-1.5,2.6c-0.3,0.1-0.5,0.2-0.8,0.1
	l-0.6-0.2L201.9,407.8z"/>
<path d="M231.3,421.4v-10.5c0-1.2-0.7-3.5-3.3-3.9l-0.1-1.3c0.8-0.5,3.1-2.1,3.3-3.9v-5.9l0-0.1c0-0.2-1-4-5.1-4.9l-17.5,0v30.5h7.8
	v-11.7h6.7v11.7H231.3z M215.5,408.7v11.7h-5.8v-28.5h16.4c3.2,0.7,4.1,3.7,4.2,4.1v5.8c-0.2,1.3-2.3,2.8-3.1,3.2l-0.3,0.1l0.2,2.8
	l0.4,0c2.7,0.2,2.8,2.9,2.8,3v9.5h-6.1v-11.7L215.5,408.7L215.5,408.7z"/>
<path d="M234.3,421.4h20.7v-8.7l-12.7-0.1l0.1-2.9h12.6V402l-12.7-0.1v-2.8h12.7v-8.2h-20.7L234.3,421.4L234.3,421.4z M235.3,391.9
	h18.7v6.2h-12.7v4.8l12.7,0.1v5.7h-12.6l-0.1,4.9l12.7,0.1v6.7h-18.7L235.3,391.9L235.3,391.9z"/>
<path d="M271.4,400.8l16.8,17l17.1-16.8v20.5h14v-37.5h-13.8l-17,18l-17.4-18h-13.4v37.5h13.7L271.4,400.8L271.4,400.8z
	 M270.4,420.4h-11.7v-35.5h12l17.8,18.5l17.5-18.5h12.3v35.5h-12v-21.8l-18,17.8l-17.8-18V420.4z"/>
<path d="M325.7,418.5l23.8,7v-8.8l-21.7-6.8L325.7,418.5z M348.5,417.5v6.7l-21.6-6.3l1.6-6.6L348.5,417.5z"/>
<path d="M351.8,424.6l15.9-7.7l5.9-11l-20.8,11.5L351.8,424.6z M353.8,418.1l17.4-9.6l-4.2,7.7l-13.9,6.7L353.8,418.1z"/>
<path d="M345.7,374.6l-17.9,13.1v20.8l23.6,7.6l23-13l-2.8-19L345.7,374.6z M351.3,415l-22.5-7.2v-19.5l17-12.5l24.9,9l2.6,17.8
	L351.3,415z"/>
<path d="M354.6,383.9c-2.6-1-9.1-0.1-9.4,0l0,0c-0.1,0-9.9,2.2-10.2,11.2l0,0l0,0c0,0.6,0,1.3,0.1,2c1.1,9,13.2,9.8,17.5,9.8
	c0.9,0,1.4,0,1.5,0l0.1,0c0.4-0.1,9.6-3.6,11.5-10.4C367.6,389.3,356.8,384.8,354.6,383.9z M364.7,396.3c-1.6,6-9.9,9.4-10.8,9.7
	c-1,0-11.8,0.4-16.2-4.8c0,0-0.1-0.1-0.1-0.1c-0.1-0.1-0.3-0.3-0.3-0.5c-0.7-1-1.2-2.2-1.4-3.6c-0.1-0.8-0.1-1.6-0.1-2.3l1.9-0.7
	c2.8-1.1,10.5-3.9,12.5-3.8c2.3,0.2,5,0,5.6,0c1.4,0.5,3.4,1.4,4.6,2.3h0c0.2,0,0.3,0.1,0.4,0.2c0.1,0,0.1,0.1,0.2,0.2
	c0,0.1,0.1,0.1,0.1,0.2c0.1,0.1,0.3,0.2,0.5,0.4c0.3,0.2,0.6,0.3,0.9,0.5c0,0,0,0,0.1,0c0-0.8-1.4-5.1-6.5-7.5l-0.1,0
	c-0.1,0-3.4-0.5-7.2,0c-3.9,0.5-11.3,6.5-11.6,6.8l-1.4,1.1c0.8-7.4,8.8-9.2,9.3-9.4c0.4,0,6.6-0.9,8.9,0
	C356.3,385.7,366.4,389.9,364.7,396.3z M340.7,391.9c2.5-1.8,6.2-4.2,8.4-4.5c1.2-0.2,2.4-0.2,3.4-0.2c1.8,0,3.1,0.2,3.4,0.2
	c2.2,1.1,3.7,2.6,4.6,3.9c-1.7-1.1-3.9-1.9-4.3-2l-0.1,0l-0.1,0c0,0-3.1,0.2-5.5,0C348.7,389.1,343.9,390.7,340.7,391.9z"/>
<path d="M354,390.7l-0.1,0c-0.2,0-5.2,0-7.4,1c-1.4,0.7-3.9,2-5.9,3.2c0,0.1,0,0.2-0.1,0.3c-0.6,0.6-1.4,1.2-1.8,1.9
	c-0.1,0.1-0.1,0.2-0.2,0.2c-0.1,0.5-0.3,0.9-0.6,1.4c0,0.1-0.1,0.1-0.2,0.1l0,0l0.3-0.1c0.1,0,8.7-4.1,12.6-3.7c0.1,0,4.8-0.4,8,1.6
	c0.1,0,0.3,0,0.4,0.1c1,0.8,2,1.7,2.6,2.9c0,0.1,0.1,0.2,0.1,0.2c0.1,0.1,0.3,0.1,0.4,0.1c0.1,0,0.1,0,0.2,0
	c0.2-0.1,0.4-0.3,0.4-0.6C362.5,398.1,359.3,392.4,354,390.7z M350.5,393.9c-3.1-0.3-8.8,2-11.5,3.1c1.6-1.2,4.9-3,7.9-4.5
	c1.9-0.8,6.3-0.9,6.9-0.9c2.8,0.9,4.9,2.9,6.2,4.7C356.5,393.4,350.6,393.9,350.5,393.9z"/>
<path d="M320.4,402.7l4.8,14.5v-27.9l-4.8,8.9V402.7z M321.4,398.3l2.8-5.2V411l-2.8-8.4V398.3z"/>
<path d="M420.1,408.1l-27.4-23.2l-0.1-0.1h-13.3v36.7h13.4v-23.7l26.9,23.7h15.3v-36.7h-14.5L420.1,408.1z M421.3,385.8h12.5v34.7
	h-13.9l-28.2-24.9v24.9h-11.4v-34.7h11.9l28.9,24.5L421.3,385.8z"/>
<path d="M436,394.4h16.7v27h14v-27h17.5v-9.7H436V394.4z M437,385.8h46.2v7.7h-17.5v27h-12v-27H437V385.8z"/>
<path class="st0" d="M129.9,428.6h4.4v15h5.9v-15h4.5V423h-14.8V428.6z M130.9,424h12.8v3.6h-4.5v15h-3.9v-15h-4.4V424z"/>
<path class="st0" d="M145.6,427.3h5V423h-5V427.3z M146.6,424h3v2.4h-3V424z"/>
<path class="st0" d="M145.6,443.7h5V429h-5V443.7z M146.6,430h3v12.6h-3V430z"/>
<path class="st0" d="M156.3,438.3c0,0-0.1-0.2-0.1-0.4h8.6v-4.6c0,0-0.6-5-6.7-5c-6.2,0-6.3,5.7-6.3,5.8v4.5l0,0.2
	c0.1,0.2,1.5,4.3,4.8,4.3c0.1,0,0.1,0,0.2,0h3.9l0.2,0c0.1-0.1,3.2-1.4,3.9-3.5l0.2-0.7h-7.1C157.5,438.9,156.6,438.8,156.3,438.3z
	 M160.5,442.1h-3.8c-2.5,0.1-3.8-3.1-4-3.6v-4.4c0-0.2,0.1-4.8,5.3-4.8c5.2,0,5.7,3.9,5.7,4.1v3.6h-8.4l-0.1,0.4
	c-0.2,0.8,0,1.3,0.3,1.6c0.7,0.9,2.2,0.9,2.4,0.9h5.6C162.6,441,160.9,441.9,160.5,442.1z"/>
<path class="st0" d="M177.2,428.8c-0.9-0.8-2.3-1-3.9-0.5c-0.1,0-1.6,0.3-2.4,1.7h0v-1.7h-5.1v14.8h5.1v-8.9c0.3-0.4,1-1.2,1.6-1.1
	c0.4,0,0.8,0.6,1,1.1v8.9h5.3v-10.4C178.6,432.5,178.7,430.1,177.2,428.8z M177.6,432.6v9.5h-3.3v-8l0-0.2c-0.5-1.1-1.1-1.7-1.9-1.8
	c-1.4-0.1-2.4,1.5-2.6,1.7l-0.1,0.1v8.2h-3.1v-12.8h3.1v1.9l1.7-0.3l0.1-0.3c0.5-1.1,1.8-1.4,1.9-1.4c1.3-0.3,2.4-0.2,3.1,0.3
	C177.7,430.6,177.6,432.6,177.6,432.6z"/>
<path class="st0" d="M188.9,434c-0.2-0.9-1-2.7-2.9-2.9c-1.9-0.1-2.8,1.8-2.9,2.9l-0.1,0.6h6L188.9,434z M184.3,433.6
	c0.2-0.6,0.7-1.5,1.7-1.5c1,0.1,1.5,0.9,1.8,1.5H184.3z"/>
<path class="st0" d="M200.9,443.1h4.9V423h-4.9V443.1z M201.9,424h2.9v18.1h-2.9V424z"/>
<path class="st0" d="M217.2,428.1l-0.1-0.1h-5c-1.6,0.1-2.7,0.7-3.4,1.7c-1,1.4-0.7,3.1-0.7,3.2l0.1,0.4h4.3l0.1-0.4
	c0,0,0.1-0.8,0.7-1.1c0.5-0.3,1.2-0.2,2.1,0.1v1.2c-0.2,0.1-0.8,0.2-1.2,0.4c-1.9,0.5-5.1,1.3-6.1,3.6c-1.3,2.8,0.6,5.1,1.8,5.9
	l0.1,0.1h3.9c0.1,0,0.2,0.1,0.4,0.1c0.1,0,0.2,0,0.3,0c0.5-0.1,0.9-0.5,1.3-1v1h4.1v-11.5C219.8,429.7,217.3,428.2,217.2,428.1z
	 M218.8,442.1h-2.1v-3.5l-0.9,1.6c-0.6,1.1-1.4,1.9-1.7,1.9l-0.1-0.1h-3.8c-0.5-0.4-2.4-2.2-1.3-4.6c0.9-1.9,3.6-2.6,5.5-3
	c1.3-0.3,2-0.5,2-1.1v-2l-0.3-0.1c-1.4-0.6-2.5-0.7-3.3-0.2c-0.7,0.4-1,1-1.1,1.4h-2.6c0-0.5,0-1.3,0.6-2c0.5-0.7,1.4-1.1,2.7-1.3
	h4.7c0.6,0.4,2,1.5,2,2.5L218.8,442.1L218.8,442.1z"/>
<path class="st0" d="M211.3,439c0.1,0.8,0.4,1.2,0.7,1.4c0.3,0.2,0.6,0.3,0.9,0.3c0.3,0,0.5,0,0.6-0.1c0.2,0,0.9-0.1,1.4-0.6
	c0.5-0.5,0.7-1.1,0.7-2v-2.9l-0.7,0.3C214.6,435.6,211.2,437,211.3,439z M214.7,438.1c0,0.6-0.1,1-0.4,1.2c-0.3,0.3-0.7,0.3-0.8,0.3
	l0,0h-0.1l-0.1,0c-0.1,0-0.5,0.1-0.7,0c-0.2-0.1-0.3-0.3-0.3-0.7c-0.1-0.8,1.3-1.7,2.4-2.2L214.7,438.1L214.7,438.1z"/>
<path class="st0" d="M235.3,433.4c-0.4-0.1-0.7-0.2-1.1-0.3c-0.7-0.2-1-0.3-1.1-0.5c-0.1-0.3,0-0.7,0.2-1c0.2-0.3,0.4-0.4,0.5-0.5
	c0.1,0,0.3,0.2,0.4,0.3c0.2,0.3,0.5,0.5,1,0.8c1.2,0.7,2.9,0.6,3.9,0.2c0.5-0.2,0.9-0.6,1-1l0,0c0.1-0.4-0.1-0.8-0.5-1.3
	c-1-1.2-3.4-2.3-5.6-2.2c-0.6,0-2.2,0.1-3.5,1.5c-1.6,1.6-2,4.4-1,5.8c0.4,0.6,1,0.7,1.6,0.9c0.6,0.1,1.4,0.4,2.5,0.9
	c1.2,0.6,2,1,2,1.5c0,0.3-0.1,0.6-0.4,0.9c-0.2,0.2-0.4,0.3-0.6,0.3c-0.2,0-0.4-0.3-0.6-0.7c-0.3-0.6-0.8-1.3-1.6-1.6
	c-0.7-0.3-1.6-0.2-2.4,0.2c-0.6,0.3-1,0.7-1.1,1.2c-0.5,1.6,1.7,3.8,4,4.7c0.4,0.1,1.2,0.5,2.3,0.5c0.6,0,1.4-0.1,2.1-0.5
	c2.3-1.1,3.7-3.9,3.1-6.1C239.6,435,236.3,433.7,235.3,433.4z M236.7,442.7c-1.6,0.8-3.1,0.2-3.6,0c-2-0.8-3.6-2.6-3.4-3.4
	c0.1-0.2,0.3-0.5,0.6-0.6c0.3-0.2,0.7-0.2,1-0.2c0.2,0,0.4,0,0.6,0.1c0.5,0.2,0.8,0.7,1.1,1.1c0.3,0.5,0.7,1.1,1.4,1.2
	c0.5,0,0.9-0.2,1.3-0.6c0.5-0.5,0.7-1.1,0.7-1.7c-0.1-1.1-1.2-1.7-2.6-2.3c-1.3-0.6-2.1-0.8-2.7-1c-0.6-0.2-0.9-0.2-1.1-0.5
	c-0.8-1-0.3-3.3,0.9-4.5c1-1,2.3-1.1,2.9-1.2c1.8-0.1,3.7,0.8,4.7,1.7c0.3,0.3,0.4,0.5,0.4,0.6c0,0-0.2,0.2-0.6,0.3
	c-0.7,0.3-1.9,0.3-2.8-0.2c-0.3-0.2-0.5-0.4-0.8-0.6c-0.3-0.3-0.7-0.7-1.3-0.6c-0.4,0.1-0.9,0.4-1.2,0.9c-0.3,0.5-0.5,1.3-0.2,1.9
	c0.3,0.8,1.1,0.9,1.8,1.1c0.3,0.1,0.6,0.1,1,0.3c0.6,0.2,3.8,1.3,4.4,3.5C239.8,439.6,238.6,441.9,236.7,442.7z"/>
<path class="st0" d="M247.7,428L247.7,428c-3.6,0-6.3,3.9-6.5,7.3c-0.1,2.3,0.9,4.9,2.7,6.6c1.2,1.2,2.7,1.8,4.1,1.8
	c0.1,0,0.3,0,0.4,0c1.4-0.1,2.7-0.9,3.8-2.1c1.5-1.7,2.2-4.2,2-6.4C253.9,431.7,251.2,428,247.7,428z M251.4,440.9
	c-0.6,0.8-1.7,1.7-3.1,1.8c-1.3,0.1-2.6-0.5-3.7-1.5c-1.5-1.5-2.5-3.8-2.4-5.8c0.2-3,2.4-6.4,5.5-6.4l0,0c3.2,0,5.3,3.6,5.5,6.3
	C253.4,437.2,252.7,439.4,251.4,440.9z"/>
<path class="st0" d="M255.4,443.2h5.2v-20.3h-5.2L255.4,443.2L255.4,443.2z M256.4,423.9h3.2v18.3h-3.2V423.9z"/>
<path class="st0" d="M269.5,438c-0.1,0.2-0.6,0.7-1.6,0.6l-0.4-0.1c-0.1-0.1-0.2-0.3-0.3-0.5v-10l-5.1,0.2l0,11.5
	c0,0.1,0.7,3.6,3.1,3.6c0,0,0,0,0,0l3.1,0l0.1-0.1c0,0,0.8-0.4,1.4-1v1.1h4.8v-15.1h-5.5L269.5,438z M270.4,429.1h3.4v13.1H271v-3.4
	l-0.9,1.7c-0.4,0.8-1.5,1.5-1.9,1.7l-2.9,0c-1.6,0-2.1-2.7-2.1-2.7V429l3.1-0.1v9.3l0,0.1c0.5,1,0.9,1.6,1.5,1.5
	c0.2,0,0.3-0.1,0.4-0.2c1.3,0,2.1-0.8,2.3-1.3l0-0.1L270.4,429.1z"/>
<path class="st0" d="M286.4,436.1c-1,0-1.9,0.4-2.4,1c-0.4,0.5-0.4,1-0.4,1.4c0,0.1,0,0.3,0,0.3c-0.1,0-0.4,0.1-0.8,0
	c-0.9-0.3-2-1.1-2.4-2.2c-0.4-1.1,0.1-2.4,0.6-3.1c0.4-0.5,0.9-0.9,1.2-0.9c0.2,0,0.4,0.1,0.7,0.5c0.4,0.4,0.9,1,1.8,1.2
	c1.1,0.3,2.4-0.1,3.1-0.6c0.5-0.4,0.8-0.8,0.8-1.2c0.1-0.9-0.8-1.8-1.4-2.2c-1.6-1.3-4.5-2.3-6.8-1.5c-1.7,0.6-3.1,2.1-3.9,4.1
	c-1,2.4-0.9,5.2,0.2,7.2c0.8,1.6,2.7,3.4,5.3,3.7c0,0,0.2,0,0.6,0c1.1,0,3.5-0.2,5-2.2c0.2-0.3,2-2.7,0.9-4.3
	C288.1,436.5,287.3,436.2,286.4,436.1z M286.9,440.9c-1.7,2.1-4.7,1.8-4.7,1.8c-2.2-0.3-3.8-1.8-4.5-3.2c-0.9-1.8-1-4.2-0.1-6.4
	c0.7-1.7,1.9-3,3.3-3.5c0.5-0.2,1-0.3,1.5-0.3c1.6,0,3.3,0.7,4.3,1.5c0.8,0.6,1,1.1,1,1.3c0,0.1-0.1,0.3-0.4,0.5
	c-0.5,0.4-1.5,0.7-2.3,0.5c-0.6-0.1-0.9-0.5-1.2-0.9c-0.4-0.4-0.8-0.8-1.5-0.8c-0.7,0-1.4,0.5-2,1.3c-0.7,1-1.3,2.5-0.8,4
	c0.5,1.5,1.8,2.5,3,2.9c0.8,0.2,1.4,0.2,1.8-0.1c0.4-0.3,0.4-0.8,0.4-1.1c0-0.3,0-0.5,0.2-0.7c0.3-0.4,0.9-0.6,1.6-0.6
	c0.6,0,1.1,0.3,1.4,0.6C288.4,438.6,287.5,440.1,286.9,440.9z"/>
<path class="st0" d="M290.3,427.5h6.2v-4.6h-6.2V427.5z M291.3,423.9h4.2v2.6h-4.2V423.9z"/>
<path class="st0" d="M290.3,429.1c0.1,0.9,0,8.7,0,13.6l0,0.5h6.2v-14.8h-6.5L290.3,429.1z M291.4,429.4h4.1v12.8h-4.1
	C291.5,433.7,291.4,430.6,291.4,429.4z"/>
<path class="st0" d="M304.9,426.9L304.9,426.9c-3.6,0-6.3,4.2-6.5,8c-0.1,2.7,1,5.6,3,7.5c1.2,1.1,2.5,1.7,3.8,1.7
	c0.1,0,0.3,0,0.4,0c3.7-0.3,6.2-5.3,5.9-9.3C311.1,431,308.5,426.9,304.9,426.9z M305.5,443.1c-1.1,0.1-2.4-0.4-3.4-1.4
	c-1.7-1.7-2.8-4.3-2.6-6.7c0.2-3.3,2.5-7,5.5-7l0,0c3,0,5.2,3.6,5.5,6.9C310.7,438.4,308.6,442.8,305.5,443.1z"/>
<path class="st1" d="M247.7,431.7L247.7,431.7c-1.3,0-2.2,1.9-2.3,3.7c-0.1,1.5,0.5,3,1.3,3.8c0.4,0.4,0.8,0.5,1.1,0.5
	c0.1,0,0.1,0,0.2,0c1.3-0.2,2.2-2.4,2.1-4.3C249.9,433.8,249.2,431.7,247.7,431.7z M247.8,438.6c-0.2,0-0.3-0.1-0.4-0.2
	c-0.5-0.5-1-1.7-1-3c0.1-1.4,0.7-2.8,1.3-2.8l0,0c0.6,0,1.2,1.3,1.3,2.7C249.1,437,248.4,438.5,247.8,438.6z"/>
<path class="st0" d="M304.9,431L304.9,431c-1.7,0-2.9,2.2-3,4.2c-0.1,1.6,0.6,3.3,1.5,4.2c0.5,0.4,1,0.7,1.5,0.7c0.1,0,0.1,0,0.2,0
	c1.7-0.2,2.8-2.8,2.6-4.9C307.7,433.1,306.6,431,304.9,431z M305.1,439.1c-0.4,0-0.7-0.2-0.9-0.4c-0.8-0.7-1.3-2.1-1.2-3.4
	c0.1-1.5,0.9-3.3,2-3.3l0,0c1,0,1.9,1.7,2,3.2C307,437,306.1,439,305.1,439.1z"/>
<path class="st0" d="M300.7,426.2h2.9l3.5-3.3h-3.5L300.7,426.2z M304.6,423.9l-1.4,1.3H303l1.1-1.3H304.6z"/>
<path class="st0" d="M324.2,429.7c-1-0.8-2.3-1-3.9-0.5c-0.1,0-1.6,0.3-2.4,1.7h0v-1.7h-5.1V444h5.1v-8.9c0.3-0.5,1-1.2,1.5-1.1
	c0.4,0,0.8,0.6,1,1.1v8.9h5.3v-10.4C325.6,433.4,325.8,431,324.2,429.7z M324.6,433.5v9.5h-3.3v-8l0-0.2c-0.5-1.1-1.1-1.7-1.9-1.8
	c-1.4-0.1-2.4,1.5-2.6,1.7l-0.1,0.1v8.2h-3.1v-12.8h3.1v1.9l1.7-0.3l0.1-0.3c0.5-1.1,1.8-1.4,1.9-1.4c1.3-0.3,2.4-0.2,3,0.3
	C324.7,431.5,324.6,433.5,324.6,433.5z"/>
<path class="st0" d="M161.1,434.2c-0.2-0.9-1-2.7-2.9-2.9c-1.9-0.1-2.8,1.8-2.9,2.9l-0.1,0.6h6L161.1,434.2z M156.4,433.8
	c0.2-0.6,0.7-1.5,1.7-1.5c1,0.1,1.5,0.9,1.8,1.5H156.4z"/>
<path class="st0" d="M184.1,438.5c0,0-0.1-0.2-0.1-0.4h8.6v-4.6c0,0-0.6-5-6.7-5c-6.2,0-6.3,5.7-6.3,5.8v4.5l0,0.2
	c0.1,0.2,1.5,4.3,4.8,4.3c0.1,0,0.1,0,0.2,0h3.9l0.2,0c0.1-0.1,3.2-1.4,3.9-3.5l0.2-0.7h-7.1C185.4,439,184.4,438.9,184.1,438.5z
	 M188.3,442.2h-3.8c-2.5,0.1-3.8-3.1-4-3.6v-4.4c0-0.2,0.1-4.8,5.3-4.8c5.2,0,5.7,3.9,5.7,4.1v3.6h-8.4l-0.1,0.4
	c-0.2,0.8,0,1.3,0.3,1.6c0.7,0.9,2.2,0.9,2.4,0.9h5.6C190.4,441.2,188.7,442,188.3,442.2z"/>
<polyline class="st1" points="190.7,399.9 190.7,404 198.4,404 198.4,399.9 "/>
<polyline class="st1" points="216.1,399.9 216.1,404 223.9,404 223.9,399.9 "/>
</svg>
